/* XPM */
static char *document_32x32[] = {
/* columns rows colors chars-per-pixel */
"32 32 9 1 ",
"  c black",
". c red",
"X c yellow",
"o c #0000BF",
"O c blue",
"+ c #808080",
"@ c #C0C0C0",
"# c white",
"$ c None",
/* pixels */
"$$$$$  $  $  $  $  $  $  $ $$$$$",
"$$$$+#++#++#++#++#++#++#++#+ $$$",
"$$$+# ## ## ## ## ## ## ##+ @ $$",
"$$$+# ## ## ## ## ## ## ##+ @ $$",
"$$$+######################@ @ $$",
"$$$+##+++     ############@ @ $$",
"$$$+##+## OOO ############@ @ $$",
"$$$+##+## OOO ############@ @ $$",
"$$$+##+## XXX ############@ @ $$",
"$$$+##+   XXX ##oooooooo##@ @ $$",
"$$$+##+## XXX ############@ @ $$",
"$$$+##+       ##oooooooo##@ @ $$",
"$$$+##+.. ### ############@ @ $$",
"$$$+##        ##oooooooo##@ @ $$",
"$$$+######################@ @ $$",
"$$$+##oooooooooooooooooo##@ @ $$",
"$$$+######################@ @ $$",
"$$$+##oooooooooooooooooo##@ @ $$",
"$$$+######################@ @ $$",
"$$$+##oooooooooooooo###.##@ @ $$",
"$$$+##################..@#@ @ $$",
"$$$+##oooooooooooo###.@.@#@ @ $$",
"$$$+################.@#.@#@ @ $$",
"$$$+##oooooooooo###.@##.@#@ @ $$",
"$$$+##############......@#@ @ $$",
"$$$+##oooooooo###.@@@@@.@#@ @ $$",
"$$$+############.@#####.@#@ @ $$",
"$$$+##oooooo###...####...#@ @ $$",
"$$$+############@@@####@@@@ @ $$",
"$$$+######################@ @ $$",
"$$$$+@@@@@@@@@@@@@@@@@@@@@ @ $$$",
"$$$$$                       $$$$"
};
