/* XPM */
static char *email_16x16[] = {
/* columns rows colors chars-per-pixel */
"16 16 17 1 ",
"  c black",
". c gray40",
"X c #990000",
"o c #CC0000",
"O c #FF0066",
"+ c navy",
"@ c #330099",
"# c #3300CC",
"$ c #3366FF",
"% c #6666FF",
"& c #0099CC",
"* c #6699FF",
"= c #66CCFF",
"- c #66FFFF",
"; c #FFFFCC",
": c white",
"> c None",
/* pixels */
">>>>>>*=-->>>>>>",
">>>>>*=-$@*>>>>>",
">>#>$=-$>*@>>>>>",
"..##&=#........ ",
".:#&&#;;;;;;;;; ",
".:#$&+;;;;;;Oo; ",
".:+++++;;;;;oX; ",
".:::;;;;;;;;;;; ",
".::;;;;;;;;;;;; ",
".::;;;;;;#$$$+; ",
".:;;;;;;;;#--+; ",
".;;;;;;;;;#--+; ",
".        #=-++  ",
">>>>>@*>#*=$>+>>",
">>>>>%@$**$>>>>>",
">>>>>>@+#$>>>>>>"
};
