/* XPM */
static char *focus_32x32[] = {
/* columns rows colors chars-per-pixel */
"32 32 4 1 ",
"  c black",
". c cyan",
"X c white",
"o c None",
/* pixels */
"oooooooooooooooooooooooooooooooo",
"oooooooooooooooooooooooooooooooo",
"oooooooooooooooooooooooooooooooo",
"ooooooooooooo             oooooo",
"ooooooooo                   oooo",
"ooooooo     XXXXXXXXXXXXX    ooo",
"oooooo  XXXXXXXXXXXXXXXXXX      ",
"ooooo  XXXXXXXXXXXXXXXXXXX      ",
"oooo  XXXXXXXXXXXXXXXXXXXXXXX   ",
"ooo XXXXXXXXXXXXXXXXXXXXXXXXXX  ",
"oo  XXXXXXXXXXXXXXXX.....XXXXXX ",
"o  XXXXXXXXXXXXXXX.........XXXX ",
"  XXXXXXXXXXXXXX.............XX ",
"   XXXXXXXXXXXXX.............XX ",
"   XXXXXXXXXXXX...............X ",
"   XXXXXXXXXXXX...............X ",
"   XXXXXXXXXXX..........XXX....X",
"   XXXXXXXXXXX........XX   XX..X",
"   XXXXXXXXXXX........X     X..X",
"   XXXXXXXXXXX.......X       X.X",
"    XXXXXXXXXXX......X       XX ",
"     XXXXXXXXXX......X       XX ",
"o    XXXXXXXXXXX......X     XX  ",
"oo    XXXXXXXXXX......XX   XXX  ",
"oo      XXXXXXXXXX......XXXXX   ",
"ooo           XXXXXX.....XXXX  o",
"ooooo               XXXXX     oo",
"ooooooooooo                  ooo",
"oooooooooooooooooooooooooooooooo",
"oooooooooooooooooooooooooooooooo",
"oooooooooooooooooooooooooooooooo",
"oooooooooooooooooooooooooooooooo"
};
