/* XPM */
static char *webbrowser_32x32[] = {
/* columns rows colors chars-per-pixel */
"32 32 51 1 ",
"  c #161616",
". c gray16",
"X c gray20",
"o c #393939",
"O c #666633",
"+ c #000066",
"@ c #003366",
"# c #333366",
"$ c gray30",
"% c #555555",
"& c #5F5F5F",
"* c gray40",
"= c #777777",
"- c #999933",
"; c #999966",
": c #CC9966",
"> c #CCCC66",
", c navy",
"< c #000099",
"1 c #003399",
"2 c #333399",
"3 c #006699",
"4 c #336699",
"5 c #666699",
"6 c #0033CC",
"7 c #3333CC",
"8 c #0066CC",
"9 c #3366CC",
"0 c #0066FF",
"q c #3366FF",
"w c #6666CC",
"e c #669999",
"r c #0099CC",
"t c #3399CC",
"y c #0099FF",
"u c #3399FF",
"i c #6699CC",
"p c #00CCFF",
"a c #33CCFF",
"s c #33FFFF",
"d c #66CCFF",
"f c #66FFFF",
"g c gray59",
"h c #ADA990",
"j c #B2B2B2",
"k c #CCCC99",
"l c #FFCC99",
"z c #FFFF99",
"x c #99FFFF",
"c c #FFFFCC",
"v c None",
/* pixels */
"vvvvvvvvvvvvvvvvvvvvvvvvqqqqq8vv",
"vvvvvvvvvvvvvvvvvvvvvvq8qvvvv88v",
"vvvvvvvvvvvvvvvvvvv0q0qvvvvvvv88",
"vvvvvvvvvvvvv888888qt88vvvvvvvv8",
"vvvvvvvvvv888qqqqqtytyy88vvvvvv8",
"vvvvvvvv4888qqeqqtqtyyyyy88vvvv8",
"vvvvvvv7888qikiqqqtyyyppyyy8vvv8",
"vvvvvv78889jciqtqtytypyapuyy8vv8",
"vvvvv7238ecz9qtqt0uyyyaaappy0v8v",
"vvvv7<88jzkwquq87778yaafafayy89v",
"vvvv<13kzk9qu98vvvv78yaaffxpy8vv",
"vvv7<3kzkwqq98vvvvvv18yaaxxsy8vv",
"vvv<2>l>wqqq8vvvvvvvv<8affxdp8vv",
"vv7#;>>wqqqq8vvvvvvvv<8ayfdfyy8v",
"vv,=h:g9qqqq88888888888yaayppy8v",
"vv*-;;9qq8qqqqqqqtutyyyyyypyay8v",
"vvO=-5qq98qqqqqqtqtytyyyyyyyyy8v",
"v=O==qq038qqqqqqqtqtytyyyyyyyy8v",
"v=O*qq9323qq<<<<<<<<<<<<<<<<<<<v",
"=%&5qq3238qq8vvvvvvvvvvvvvvvvvvv",
"=%%0q324788q8vvvvvvvvv79qqqqqq3v",
"&%%qq3<2338qq8vvvvvvv73qtyrty83v",
"&&5q81,27488qq8vvvvv73qqqrurq3vv",
"$&qq3+,<3738qqq33333qqqqqqqq83vv",
"$&qq3o1,247488qq888qqqqqqqqq3vvv",
"$&qq3v.1<737388qqqqqqqqqqqq3vvvv",
"&&q3vvv  <24743388qqqqqqq33vvvvv",
"v&q3vvvvv  <163943888qq33vvvvvvv",
"v&93vvvvvvv  <<63333333vvvvvvvvv",
"v&793vvvvv33X. @,<77vvvvvvvvvvvv",
"vv@7733333<<vvvvvvvvvvvvvvvvvvvv",
"vvvv@@@@@<vvvvvvvvvvvvvvvvvvvvvv"
};
