/* XPM */
static char *maximizeI[] = {
/* columns rows colors chars-per-pixel */
"18 38 6 1 ",
"  c textcolor",
". c shadowcolor",
"X c lightshadowcolor",
"o c inactivetitlebarright",
"O c basecolor",
"+ c lightcolor",
/* pixels */
"oooooooooooooooooo",
"oooooooooooooooooo",
"+++++++++++++++.oo",
"+OOOOOOOOOOOOOX.oo",
"+OO         OOX.oo",
"+OO         OOX.oo",
"+OO OOOOOOO OOX.oo",
"+OO OOOOOOO OOX.oo",
"+OO OOOOOOO OOX.oo",
"+OO OOOOOOO OOX.oo",
"+OO OOOOOOO OOX.oo",
"+OO OOOOOOO OOX.oo",
"+OO         OOX.oo",
"+OOOOOOOOOOOOOX.oo",
"+XXXXXXXXXXXXXX.oo",
"................oo",
"oooooooooooooooooo",
"oooooooooooooooooo",
"OOOOOOOOOOOOOOOOOO",
"oooooooooooooooooo",
"oooooooooooooooooo",
"...............+oo",
".XXXXXXXXXXXXXO+oo",
".XOOOOOOOOOOOOO+oo",
".XOO         OO+oo",
".XOO         OO+oo",
".XOO OOOOOOO OO+oo",
".XOO OOOOOOO OO+oo",
".XOO OOOOOOO OO+oo",
".XOO OOOOOOO OO+oo",
".XOO OOOOOOO OO+oo",
".XOO OOOOOOO OO+oo",
".XOO         OO+oo",
".OOOOOOOOOOOOOO+oo",
"++++++++++++++++oo",
"oooooooooooooooooo",
"oooooooooooooooooo",
"OOOOOOOOOOOOOOOOOO"
};
