/* XPM */
static char * titleAT_xpm[] = {
"6 19 7 1",
" 	c activetitlebarleft",
"n	c activetitlebarleftmiddle2",
"m	c activetitlebarleftmiddle",
".	c activetitlebarmiddle",
"p	c activetitlebarrightmiddle",
"+	c activetitlebarright",
"@	c basecolor",
" nm.p+",
" nm.p+",
" nm.p+",
" nm.p+",
" nm.p+",
" nm.p+",
" nm.p+",
" nm.p+",
" nm.p+",
" nm.p+",
" nm.p+",
" nm.p+",
" nm.p+",
" nm.p+",
" nm.p+",
" nm.p+",
" nm.p+",
" nm.p+",
"@@@@@@"};
