/* XPM */
static char *setscreen1_16x16[] = {
/* columns rows colors chars-per-pixel */
"16 16 7 1 ",
"  c black",
". c navy",
"X c blue",
"o c #808080",
"O c #C0C0C0",
"+ c white",
"@ c None",
/* pixels */
"@@oooooooooooo@@",
"@oOOOOOOOOOO+o @",
"o+++++++++++Oo @",
"o+..........Oo @",
"o+.XXXXXXXXXOo @",
"o+.XXXXOXXXXOo @",
"o+.XXXOOXXXXOo @",
"o+.XXXXOXXXXOo @",
"o+.XXXOOOXXXOo @",
"o+.XXXXXXXXXOo @",
"oOOOOOOOOOOOOo @",
"@             @@",
"@@@@oOOOO @@@@@@",
"@@oo+OOOOo  @@@@",
"@o++OOOOOOoo @@@",
"@@          @@@@"
};
