/* XPM */
static char *setscreen2_32x32[] = {
/* columns rows colors chars-per-pixel */
"32 32 7 1 ",
"  c black",
". c navy",
"X c blue",
"o c #808080",
"O c #C0C0C0",
"+ c white",
"@ c None",
/* pixels */
"@@@@@@oooooooooooooooooooooooo@@",
"@@@@@oOOOOOOOOOOOOOOOOOOOOOO+o @",
"@@@@oOOOOOOOOOOOOOOOOOOOOOO+oo @",
"@@@o+++++++++++++++++++++++ooo @",
"@@o+OOOOOOOOOOOOOOOOOOOOOOOooo @",
"@@o+Ooooooooooooooooooooo+Oooo @",
"@@o+O                   .+Oooo @",
"@@o+O XXXXXXXXXXXXXXXXXX.+Oooo @",
"@@o+O XXXXXXXXXXXXXXXXXX.+Oooo @",
"@@o+O XXXXXXXXXXXXXXXXXX.+Oooo @",
"@@o+O XXXXXXXXOOOXXXXXXX.+Oooo @",
"@@o+O XXXXXXXOXXXOXXXXXX.+Oooo @",
"@@o+O XXXXXXXXXXXOXXXXXX.+Oooo @",
"@@o+O XXXXXXXXXXOXXXXXXX.+Oooo @",
"@@o+O XXXXXXXXXOXXXXXXXX.+Oooo @",
"@@o+O XXXXXXXXOXXXXXXXXX.+Oooo @",
"@@o+O XXXXXXXOXXXXXXXXXX.+Oooo @",
"@@o+O XXXXXXXOOOOOXXXXXX.+Oooo @",
"@@o+O XXXXXXXXXXXXXXXXXX.+Oooo @",
"@@o+O XXXXXXXXXXXXXXXXXX.+Oooo @",
"@@o+O....................+Oooo @",
"@@o+O+++++++++++++++++++++Oooo @",
"@@o+OOOOOOOOOOOOOOOOOOOOOOOoo @@",
"@@oooooooooooooooooooooooooo @@@",
"@@@                         @@@@",
"@@@@@@@@@@@@oo+OOOo @@@@@@@@@@@@",
"@@@@@@@@oooo+++OOOOO   o@@@@@@@@",
"@@@@@@oo+++++OOOOOOOOOOO  @@@@@@",
"@@@@@o+++++OOOOOOOOOOOOooo @@@@@",
"@@@@@o+++OOOOOOOOOOOOOoooo @@@@@",
"@@@@@@  O+++++++++++OOoo  @@@@@@",
"@@@@@@@@                @@@@@@@@"
};
