/* XPM */
static char * xvkbd_xpm[] = {
"16 16 8 1",
" 	c None",
".	c #000084",
"+	c #840000",
"@	c #000000",
"#	c #C6C3C6",
"$	c #FFFFFF",
"%	c #FF0000",
"&	c #848284",
".............++.",
"@###########+#+@",
"@$$$$$$$$$$+#%+@",
"@&&&&&&&&&+#%@+@",
"@####&###+#%+@+@",
"@$$$$&$$+%%+@+@@",
"@$$$$&$+%%+@+@#@",
"@$$$$&+%%+@+@$#@",
"@####+%%+@#@###@",
"@@@@+%%+@@@@@@@@",
"   +%%+@        ",
"  +%%+@         ",
"  +%+@          ",
" &#@@           ",
" @@             ",
"@               "};
