/* XPM */
static char *email_32x32[] = {
/* columns rows colors chars-per-pixel */
"32 32 19 1 ",
"  c black",
". c #003366",
"X c gray40",
"o c #990000",
"O c #CC0000",
"+ c #CC0033",
"@ c #FF0066",
"# c navy",
"$ c #006699",
"% c #3300CC",
"& c #3366FF",
"* c #0099CC",
"= c #6699FF",
"- c #66CCFF",
"; c #66FFFF",
": c gray80",
"> c #FFFFCC",
", c white",
"< c None",
/* pixels */
"<<<<<<<<<<<<<<<<<<<<<<<<<<<<<<<<",
"<<<<<<<<<<<<<=----<<<<<<<<<<<<<<",
"<<<<<<<<<<<==-;;;;=<<<<<<<<<<<<<",
"<<<<<<<<<<%--;;;##%%<<<<<<<<<<<<",
"<<<<<<<<<%-----#%%=%%<<<<<<<<<<<",
"<<<<%<<<%==---#<<<#=%<<<<<<<<<<<",
"<<<<%#<%*====#<<<<<#%<<<<<<<<<<<",
"XXXX%%#&***=#XXXXXXXXXXXXXXXXXX ",
"X:::%%&&&&*#::::::::::::::::::X ",
"X:,,%%%&&&#,,,,>,>,>>>>>>>>>>>X ",
"X:,,%%%%&#,,,,,,>,>>>>>>>@@+O>X ",
"X:,,%%%%%%#,>,>,,>>>>>>>>@+Oo>X ",
"X:,,########,,,>>>>>>>>>>+Ooo>X ",
"X:,,,,,,,,,>>,>>>>>>>>>>>Oooo>X ",
"X:,,,,,,,>,,,>>>>>>>>>>>>>>>>>X ",
"X:,,,,,,,,>,>>>>>>>>>>>>>>>>>>X ",
"X:,,,,,>,>,>................>>X ",
"X:,,,,,,,,>>>>>>>>>>>>>>>>>>>>X ",
"X:,,,>,>,>>>................>>X ",
"X:,,,,,,>>>>>>>>>>>>>>>>>>>>>>X ",
"X:,,,>,>>>>>........%%%%%%%#>>X ",
"X:,>,,>>>>>>>>>>>>>>>%;;;;;#>>X ",
"X:,,>>>>>>>>>>>>>>>>>>%;;;;#>>X ",
"X:,>>>>>>>>>>>>>>>>>>%-;-;;#>>X ",
"XXXXXXXXXXXXXXXXXXXX%-----;#XXX ",
"                   %=----#-#    ",
"<<<<<<<<<<<%#<<<<<%====-%<##<<<<",
"<<<<<<<<<<<%=#<<<%****=%<<<#<<<<",
"<<<<<<<<<<<<#=$$%&&*&*%<<<<<<<<<",
"<<<<<<<<<<<<%#%%&&&&&%<<<<<<<<<<",
"<<<<<<<<<<<<<#%%%%&%%<<<<<<<<<<<",
"<<<<<<<<<<<<<<##%%%<<<<<<<<<<<<<"
};
