/* XPM */
static char *lock_16x16[] = {
/* columns rows colors chars-per-pixel */
"16 16 9 1 ",
"  c black",
". c #808000",
"X c navy",
"o c #008080",
"O c #808080",
"+ c #C0C0C0",
"@ c #D4D0C8",
"# c white",
"$ c None",
/* pixels */
"$$$$$$     $$$$$",
"$$$$$       $$$$",
"$$$$   @@@  $$$$",
"$$$$  @@OO  O$$$",
"$$$$  OO++  + $$",
"$$$O  ++++OOX $$",
"$$O+  O+++XX+ $$",
"$$OX+O++XX.+. $$",
"$$O+XXXX+ +o+ $$",
"$$O#.+.+.  +. $$",
"$$O+Oo+o   o+ $$",
"$$O#.+.+  .+. $$",
"$$O+Oo+o+ +o O$$",
"$$O#.+.+.O. O$$$",
"$$O+Oo+o   O$$$$",
"$$$O    O$$$$$$$"
};
