/* XPM */
static char *run_16x16[] = {
/* columns rows colors chars-per-pixel */
"16 16 21 1 ",
"  c black",
". c gray11",
"X c #222222",
"o c #660000",
"O c #555555",
"+ c gray40",
"@ c #777777",
"# c #800000",
"$ c #A50021",
"% c #CC3300",
"& c #FF3300",
"* c navy",
"= c #000099",
"- c #868686",
"; c gray60",
": c #FF9999",
"> c #C0C0C0",
", c #E7E7D6",
"< c #EAEAEA",
"1 c #FFFBF0",
"2 c None",
/* pixels */
"222------------X",
"222-*******, , X",
"222-=***=**    X",
"########>>>>>>>.",
"#%:&%%o ,1111,-.",
"2#o#   ,11111,-X",
"2+,<<;.,11111,-X",
"2+,>.;.,11111,-.",
"22O+@.,111111,-.",
"222+.,,,,,,,,,-.",
"22+,-.---------.",
"2+,>-;..........",
"2+,-.;.222222222",
"2ooooo.222222222",
"$::&&oo 22222222",
"        22222222"
};
