/* XPM */
static char * separator_xpm[] = {
"16 22 3 1",
" 	c #D4D0C8",
".	c #808080",
"+	c #FFFFFF",
"         .+     ",
"         .+     ",
"         .+  ++.",
"         .+  + .",
"         .+  + .",
"         .+  + .",
"         .+  + .",
"         .+  + .",
"         .+  + .",
"         .+  + .",
"         .+  + .",
"         .+  + .",
"         .+  + .",
"         .+  + .",
"         .+  + .",
"         .+  + .",
"         .+  + .",
"         .+  + .",
"         .+  + .",
"         .+  ...",
"         .+     ",
"         .+     "};
