/* XPM */
static char *settings_16x16[] = {
/* columns rows colors chars-per-pixel */
"16 16 17 1 ",
"  c black",
". c gray11",
"X c #330000",
"o c #333300",
"O c #666600",
"+ c gray30",
"@ c gray40",
"# c #999900",
"$ c #CCCC66",
"% c gray60",
"& c #ADA990",
"* c #FFFF99",
"= c #C0C0C0",
"- c #E7E7D6",
"; c #EAEAEA",
": c #FFFBF0",
"> c None",
/* pixels */
">%%%%%%%%%%%>>>>",
">%:--------+>>>>",
">%:=...%-;-+>>>>",
">%:=.::%---+>>>>",
">%:=.::%-OO+>>>>",
">%:=.%%%O::O>>>>",
">%:=&oo&O*#O>##>",
">%:--O;#O*#O#:O>",
">%:--O#OO*#OO#O>",
">%:-o***O$#O**:O",
">%:-OoO*$OO$*#OO",
">%:-OO:#*:*$#: O",
">%:;O:#OX:$XO#: ",
">@@@OOoOOO XOO#>",
">>>>>Oo>>O >>O#>",
">>>>>>>>>Oo>>>>>"
};
