/* XPM */
static char *suspend_32x32[] = {
/* columns rows colors chars-per-pixel */
"32 32 22 1 ",
"  c black",
". c #330033",
"X c gray20",
"o c #000066",
"O c #5F5F5F",
"+ c #777777",
"@ c #808000",
"# c #CCCC33",
"$ c #FFFF33",
"% c #3333CC",
"& c #3333FF",
"* c #868686",
"= c gray59",
"- c gray60",
"; c #B2B2B2",
": c #C0C0C0",
"> c gray80",
", c #D7D7D7",
"< c gray89",
"1 c #EAEAEA",
"2 c #F8F8F8",
"3 c None",
/* pixels */
"33333333333333333333333333333333",
"33333333333333333333333333333333",
"33333333333333333333333333333333",
"33333333333333333333333333333333",
"333333333****3333333333333333333",
"3333333**::::++33333333333333333",
"33333**;>>:>::;+++++++3333333333",
"3333*222,>>>>::;-++;::++33333333",
"3333*21<<<21>>::;;-**:::++333333",
"3333*2<O*:<<12>>:;;-=**::;X33333",
"3333*2<.oo*:<<22>:;;-=* :=* 3333",
"3333*21.%%oo*:>,<2:;;*+ -=* 3333",
"3333*2<.%%%%oo*;,>2-=*+ -=* 3333",
"3333*2<.%&&@##oo+>:-=*+ -=* 3333",
"3333*2<.%&@$#&&%o>:-=*+ -=* 3333",
"3333*21.%&#$@&%%o::-=*+ -=* 3333",
"3333*2<.%&#$@&&%o::-=*+ -=* 3333",
"3333*2<.%&@$#&%%o::-=*+ -=* 3333",
"3333*2<oo%&@$#&%o::-=*+ -=* 3333",
"3333*-1<:oo&%%%%o::-=*+ -=+ 3333",
"3333*O+-<<:oo%%%o::-=*+ -+ 33333",
"333333OO+->>:oooo::-=*+ + 333333",
"33333333OO+->>:oo::-=*+  3333333",
"3333333333OO+-:::::-=*+ 33333333",
"333333333333OO+-:::-=*+ 33333333",
"33333333333333OO+---=++ 33333333",
"3333333333333333OO+==  333333333",
"333333333333333333OO 33333333333",
"33333333333333333333333333333333",
"33333333333333333333333333333333",
"33333333333333333333333333333333",
"33333333333333333333333333333333"
};
