/* XPM */
static char *windows_32x32[] = {
/* columns rows colors chars-per-pixel */
"32 32 17 1 ",
"  c black",
". c #800000",
"X c red",
"o c #008000",
"O c green",
"+ c #808000",
"@ c yellow",
"# c navy",
"$ c blue",
"% c #800080",
"& c magenta",
"* c #008080",
"= c cyan",
"- c #808080",
"; c #C0C0C0",
": c white",
"> c None",
/* pixels */
">>>>>>>>>>>>>>>>>>>>>>>>>>>>>>>>",
"----------------------- >>>>>>>>",
"-###################### >>>>>>>>",
"-################: : :  >>>>>>>>",
"-################       >>>>>>>>",
"-;;;;;;;;;;;;;;;;;;;;;; >>>>>>>>",
"-;::::::::::::::::::::; >>>>>>>>",
"-;::OOo::::***::::$$#:; >>>>>>>>",
"-;::O@o::::*=*::::$=#:; >>>>>>>>",
"-;:oooo:----------------------- ",
"-;::   :-###################### ",
"-;::::::-################: : :  ",
"-;:----:-################       ",
"-;::::::-;;;;;;;;;;;;;;;;;;;;;; ",
"-;:::&&:-;::::::::::::::::::::; ",
"-;::&@&:-;::OOo::::***::::$$#:; ",
"-;:%%&%:-;::O@o::::*=*::::$=#:; ",
"-;::   :-;:oooo:::***#:::####:; ",
"-;::::::-;::   ::::###::::   :; ",
"-;:----:-;::::::::::::::::::::; ",
"-;::::::-;:----:::----:::----:; ",
"-;;;;;;;-;::::::::::::::::::::; ",
"        -;:::&&:::::++::::XX.:; ",
">>>>>>>>-;::&@&::::+@+::::X@.:; ",
">>>>>>>>-;:%%&%:::+++ :::....:; ",
">>>>>>>>-;::   ::::   ::::   :; ",
">>>>>>>>-;::::::::::::::::::::; ",
">>>>>>>>-;:----:::----:::----:; ",
">>>>>>>>-;::::::::::::::::::::; ",
">>>>>>>>-;;;;;;;;;;;;;;;;;;;;;; ",
">>>>>>>>                        ",
">>>>>>>>>>>>>>>>>>>>>>>>>>>>>>>>"
};
