/* XPM */
static char * taskbarbg_xpm[] = {
"1 28 2 1",
" 	c #d4d0c8",
".	c #ffffff",
" ",
".",
" ",
" ",
" ",
" ",
" ",
" ",
" ",
" ",
" ",
" ",
" ",
" ",
" ",
" ",
" ",
" ",
" ",
" ",
" ",
" ",
" ",
" ",
" ",
" ",
" ",
" "};
