/* XPM */
static char * dframeAB_xpm[] = {
"1 3 3 1",
" 	c #d4d0c8",
".	c #808080",
"+	c #404040",
" ",
".",
"+"};
