/* XPM */
static char * titleAT_xpm[] = {
"6 19 7 1",
" 	c #7c7eaf",
"n	c #6A6C99",
"m	c #61638E",
".	c #585A83",
"p	c #46486D",
"+	c #353757",
"@	c #d4d0c8",
" nm.p+",
" nm.p+",
" nm.p+",
" nm.p+",
" nm.p+",
" nm.p+",
" nm.p+",
" nm.p+",
" nm.p+",
" nm.p+",
" nm.p+",
" nm.p+",
" nm.p+",
" nm.p+",
" nm.p+",
" nm.p+",
" nm.p+",
" nm.p+",
"@@@@@@"};
