/* XPM */
static char * titleIT_xpm[] = {
"6 19 7 1",
" 	c #808080",
"n	c #909090",
"m	c #989898",
".	c #A0A0A0",
"p	c #B0B0B0",
"+	c #c0c0c0",
"@	c #d4d0c8",
" nm.p+",
" nm.p+",
" nm.p+",
" nm.p+",
" nm.p+",
" nm.p+",
" nm.p+",
" nm.p+",
" nm.p+",
" nm.p+",
" nm.p+",
" nm.p+",
" nm.p+",
" nm.p+",
" nm.p+",
" nm.p+",
" nm.p+",
" nm.p+",
"@@@@@@"};
