/* XPM */
static char * buttonA_xpm[] = {
"76 22 4 1",
" 	c #FFFFFF",
".	c #404040",
"+	c #D4D0C8",
"@	c #808080",
"                                                                           .",
" +++++++++++++++++++++++++++++++++++++++++++++++++++++++++++++++++++++++++@.",
" +++++++++++++++++++++++++++++++++++++++++++++++++++++++++++++++++++++++++@.",
" +++++++++++++++++++++++++++++++++++++++++++++++++++++++++++++++++++++++++@.",
" +++++++++++++++++++++++++++++++++++++++++++++++++++++++++++++++++++++++++@.",
" +++++++++++++++++++++++++++++++++++++++++++++++++++++++++++++++++++++++++@.",
" +++++++++++++++++++++++++++++++++++++++++++++++++++++++++++++++++++++++++@.",
" +++++++++++++++++++++++++++++++++++++++++++++++++++++++++++++++++++++++++@.",
" +++++++++++++++++++++++++++++++++++++++++++++++++++++++++++++++++++++++++@.",
" +++++++++++++++++++++++++++++++++++++++++++++++++++++++++++++++++++++++++@.",
" +++++++++++++++++++++++++++++++++++++++++++++++++++++++++++++++++++++++++@.",
" +++++++++++++++++++++++++++++++++++++++++++++++++++++++++++++++++++++++++@.",
" +++++++++++++++++++++++++++++++++++++++++++++++++++++++++++++++++++++++++@.",
" +++++++++++++++++++++++++++++++++++++++++++++++++++++++++++++++++++++++++@.",
" +++++++++++++++++++++++++++++++++++++++++++++++++++++++++++++++++++++++++@.",
" +++++++++++++++++++++++++++++++++++++++++++++++++++++++++++++++++++++++++@.",
" +++++++++++++++++++++++++++++++++++++++++++++++++++++++++++++++++++++++++@.",
" +++++++++++++++++++++++++++++++++++++++++++++++++++++++++++++++++++++++++@.",
" +++++++++++++++++++++++++++++++++++++++++++++++++++++++++++++++++++++++++@.",
" +++++++++++++++++++++++++++++++++++++++++++++++++++++++++++++++++++++++++@.",
" @@@@@@@@@@@@@@@@@@@@@@@@@@@@@@@@@@@@@@@@@@@@@@@@@@@@@@@@@@@@@@@@@@@@@@@@@@.",
"............................................................................"};
