/* XPM */
static char *closeI[] = {
/* columns rows colors chars-per-pixel */
"18 38 6 1 ",
"  c textcolor",
". c shadowcolor",
"X c lightshadowcolor",
"o c inactivetitlebarright",
"O c basecolor",
"+ c lightcolor",
/* pixels */
"oooooooooooooooooo",
"oooooooooooooooooo",
"+++++++++++++++.oo",
"+OOOOOOOOOOOOOX.oo",
"+OOOOOOOOOOOOOX.oo",
"+OOO  OOOO  OOX.oo",
"+OOOO  OO  OOOX.oo",
"+OOOOO    OOOOX.oo",
"+OOOOOO  OOOOOX.oo",
"+OOOOO    OOOOX.oo",
"+OOOO  OO  OOOX.oo",
"+OOO  OOOO  OOX.oo",
"+OOOOOOOOOOOOOX.oo",
"+OOOOOOOOOOOOOX.oo",
"+XXXXXXXXXXXXXX.oo",
"................oo",
"oooooooooooooooooo",
"oooooooooooooooooo",
"OOOOOOOOOOOOOOOOOO",
"oooooooooooooooooo",
"oooooooooooooooooo",
"...............+oo",
".XXXXXXXXXXXXXO+oo",
".XOOOOOOOOOOOOO+oo",
".XOOOOOOOOOOOOO+oo",
".XOOO  OOOO  OO+oo",
".XOOOO  OO  OOO+oo",
".XOOOOO    OOOO+oo",
".XOOOOOO  OOOOO+oo",
".XOOOOO    OOOO+oo",
".XOOOO  OO  OOO+oo",
".XOOO  OOOO  OO+oo",
".XOOOOOOOOOOOOO+oo",
".OOOOOOOOOOOOOO+oo",
"++++++++++++++++oo",
"oooooooooooooooooo",
"oooooooooooooooooo",
"OOOOOOOOOOOOOOOOOO"
};
