/* XPM */
static char * dframeABL_xpm[] = {
"3 3 4 1",
" 	c basecolor",
".	c lightcolor",
"+	c lightshadowcolor",
"@	c shadowcolor",
" . ",
" ++",
"@@@"};
