/* XPM */
static char * start_xpm[] = {
"55 24 9 1",
" 	c basecolor",
".	c lightcolor",
"+	c shadowcolor",
"@	c lightshadowcolor",
"#	c textcolor",
"$	c #FF0000",
"%	c #00FF00",
"&	c #0000FF",
"*	c #FFFF00",
"                                                       ",
"......................................................+",
".                                                    @+",
".                                                    @+",
".                                                    @+",
".            ####                                    @+",
".          ########                                  @+",
".   #     ###$##%###                                 @+",
".   # # ####$$##%%##   ##### ##               ##     @+",
".     ######$$##%%##  ##     ##               ##     @+",
".   $     ##$####%##  ##     ####  ####  ## # ####   @+",
".   $ $ $$##########  #####  ##       ## #### ##     @+",
".     $$$$###&##*###   ##### ##    ##### ##   ##     @+",
".   &     ##&&##**##      ## ##   ##  ## ##   ##     @+",
".   & & &&##&&##**##      ## ##   ##  ## ##   ##     @+",
".     &&&&##&####*##  #####   ###  ##### ##    ###   @+",
".   #     ##########                                 @+",
".   # # #####    ###                                 @+",
".     #####        #                                 @+",
".                                                    @+",
".                                                    @+",
".@@@@@@@@@@@@@@@@@@@@@@@@@@@@@@@@@@@@@@@@@@@@@@@@@@@@@+",
"+++++++++++++++++++++++++++++++++++++++++++++++++++++++",
"                                                       "};
