/* XPM */
static char *mstsc_32x32[] = {
/* columns rows colors chars-per-pixel */
"32 32 8 1 ",
"  c black",
". c navy",
"X c blue",
"o c cyan",
"O c #808080",
"+ c #C0C0C0",
"@ c white",
"# c None",
/* pixels */
"############################  ##",
"#######     ##############  @+  ",
"#####  +++@+ ###########  @++++ ",
"#### O+O+++@+ ########  @++..o+ ",
"### ++O+++@+@O #####  @++..XXo+ ",
"## +O +O+@+@@+ ###  @++..XXXXo+ ",
"# O+ O +@+@@@+ #  @++..XXXXXXo+ ",
"# +O+ O +@+@@+  @++..XXXXXXXXo+ ",
" +O+O+ O@+@@@+  @O+.XXXXXXXXXo+ ",
" O+O+@+@+@@@@+  @O+.XXXXXXXXXo+ ",
" +++@+@+@@@@+ O @O+.XXXXXXXXXo+ ",
" ++@+@+@@@@@+ O @O+.XXXXXXXXXo+ ",
" +@+@@@@@@@+ +O @O+.XXXXXXXXXo+ ",
" ++@@@@@@@+ +OO @O+.XXXXXXXXXo+ ",
"# +@@@@@++ ++O  +O+.XXXXXXXXXo+ ",
"## +++++  +OO # @O+.XXXXXXXXoo+ ",
"###     OOO   # +O+.XXXXXXoo++  ",
"#####  O   OOO  @O+.XXXXoo++  ##",
"####### @+OOOOO +O+.XXoo++  ####",
"###### @@O+OOOO +O+.oo++  O  ###",
"###### @@+@+OOO +O+o++  +++ O ##",
"##### @@+@+O+OO +O++  +++++ +O #",
"##### @+@+@+OOO +O   @@+@++ O++ ",
"##### +@+O+O+O @  +@+ @@+@+ +O+ ",
"##### @+@+O+O+ @@@@+@ @@@+@ O+O ",
"######  +O+O   @@@+@+@ @@@+ +O+ ",
"########    ## @@@@+@+ @@@@ ++O ",
"############### @@@@@@+    +++ #",
"################ @@@@@@@+++++ ##",
"#################   @@@@@+   ###",
"####################      ######",
"################################"
};
