/* XPM */
static char *shutdown2[] = {
/* columns rows colors chars-per-pixel */
"32 32 11 1 ",
"  c black",
". c #008000",
"X c green",
"o c yellow",
"O c navy",
"+ c blue",
"@ c cyan",
"# c #808080",
"$ c #C0C0C0",
"% c white",
"& c None",
/* pixels */
"&&&&&&&&####&&&&&&&&&&&&&&&&&&&&",
"&&&&&&##$$$$##&&&&&&&&&&&&&&&&&&",
"&&&&##$$$$$$$$########&&&&&&&&&&",
"&&&#%%%%%$$$$$$$##$$$$##&&&&&&&&",
"&&&#%$$$$%%$$$$$$$##$$$$##&&&&&&",
"&&&#%$ ##$$%%$$$$$$$##$$$$#&&&&&",
"&&&#%$ OO##$$%%$$$$$$$ $### &&&&",
"&&&#%$ ++OO##$$%%$$$## #### &&&&",
"&&&#%$ ++++OO##$$$#### #### &&&&",
"&&&#%$ +++@++OO##$#### #### &&&&",
"&&&#%$ +@+@++@+OO$#### #### &&&&",
"&&&#%$ ++@%+@+++O$#### #### &&&&",
"&&&#%$ +@+o@++++O$#### #### &&&&",
"&&&#%$ +++@+++++O$#### #### &&&&",
"&&&#%$ O++@+@+++O$#### #### &&&&",
"&&&#$###OO++++++O$#### #### &&&&",
"&&&# $$$##OO++++O$#### ### &&&&&",
"&&#$$  $$$##OO++O$#### ## &&&&&&",
"&&#%%$$  $$$##OOO$#### #  &&&&&&",
"&&#%$%%$$  $$$##O$####  ##  &&&&",
"&&#%$$$%%$$  $$$#$#### ##### &&&",
"&&#%$XX$$%%$$  $$$#### ###$$ &&&",
"&&#%$..$$$$%%$$  $##  ##$$## &&&",
"&&&  $$$$$$$$%%$$   ##$$#### &&&",
"&&&&&  $$$$$$$$%%$##$$###### &&&",
"&&&&&&&  $$$$$$$$%$$######## &&&",
"&&&&&&&&&  $$$$$$$########  &&&&",
"&&&&&&&&&&&  $$$$$######  &&&&&&",
"&&&&&&&&&&&&&  $$$####  &&&&&&&&",
"&&&&&&&&&&&&&&&  $##  &&&&&&&&&&",
"&&&&&&&&&&&&&&&&&   &&&&&&&&&&&&",
"&&&&&&&&&&&&&&&&&&&&&&&&&&&&&&&&"
};
