/* XPM */
static char *desktop[] = {
/* columns rows colors chars-per-pixel */
"16 16 20 1 ",
"  c black",
". c #9C0000",
"X c #CE3100",
"o c #9C6300",
"O c #FF5252",
"+ c #CE9C00",
"@ c #FFCE00",
"# c #9C9C63",
"$ c #00639C",
"% c #31639C",
"& c #009CCE",
"* c #63CEFF",
"= c gray58",
"- c #ADAD94",
"; c #CECE9C",
": c #FFFF9C",
"> c #FF9CCE",
", c #FFFFCE",
"< c white",
"1 c None",
/* pixels */
"111111111111OX11",
"11111111111+>.11",
"&&&&$-----+@o - ",
"&*&$;<<,<+:o &$ ",
"&&$;<<,,+@o %*$ ",
"&$;<===+:o -,%$ ",
"$;<<=<+@o -,;;% ",
"-<<,=<#o  ,;,-= ",
"-<,,=< <, ;,-;= ",
"-,,,=<<<, ,;;-= ",
"-,,,=<<<, ;;-;= ",
"&,,,=,,,, ;-;-% ",
"&&,,      -;-%% ",
"&*&,,;,;;-;-%*% ",
"$$$&=======%%%% ",
"                "
};
