/* XPM */
static char *documents_16x16[] = {
/* columns rows colors chars-per-pixel */
"16 16 16 1 ",
"  c #313100",
". c gray29",
"X c gray32",
"o c #848400",
"O c #9C9C00",
"+ c #CECE63",
"@ c #00319C",
"# c #848484",
"$ c #FFCE9C",
"% c #FFFF9C",
"& c #E7E7D6",
"* c #EFEFEF",
"= c gray97",
"- c #FFFFF7",
"; c white",
": c None",
/* pixels */
"::::::::#:::::::",
":::::::#*X::::::",
":::OOO#;-&.:::::",
"::O++#;;=;*X::::",
"::O+#;;;@-=&Xoo:",
"::O#&&&@&@&&&Xo:",
"OOOOOOOOOOOO&&.:",
"O;;;;;;;;;$+O&&X",
"O;%%%%%%%$%$O& :",
":O%%%$%%$%$$+O :",
":O%%%%%$%$%$$O :",
":O%$%%$%$%$%$O :",
"::O$%$%$%$%$$O :",
"::OOOOOOOOOOOO :",
":::           ::",
"::::::::::::::::"
};
