/* XPM */
static char *logout_16x16[] = {
/* columns rows colors chars-per-pixel */
"16 16 16 1 ",
"  c black",
". c gray3",
"X c #777777",
"o c red",
"O c #CC0033",
"+ c #009933",
"@ c #808000",
"# c #999900",
"$ c #CCCC00",
"% c yellow",
"& c blue",
"* c #868686",
"= c #B2B2B2",
"- c #C0C0C0",
"; c #F8F8F8",
": c None",
/* pixels */
"::::::::* ::::::",
":::::::*;- :::::",
"::::::X;* = ::::",
":::::*; ++ - :::",
"::::*;-Oo$% = ::",
"::::*;- && ;- ::",
"::::*;o-  ;- :::",
"::::*--&;;- ::::",
":::@  ---- :::::",
"::@ =%@   ::::::",
":@% #%%@@@@@@@::",
":@%@  %%%%%%%% :",
":@%@; $$##$##$$ ",
":@$$@$$#..#  # :",
"::@#### :: :: ::",
":::    :::::::::"
};
