/* XPM */
static char *programs_16x16[] = {
/* columns rows colors chars-per-pixel */
"16 16 17 1 ",
"  c gray3",
". c #222222",
"X c #800000",
"o c red",
"O c #008000",
"+ c #999900",
"@ c yellow",
"# c #CCCC66",
"$ c navy",
"% c blue",
"& c cyan",
"* c #868686",
"= c #FFCC99",
"- c #FFFF99",
"; c #C0C0C0",
": c #FFFBF0",
"> c None",
/* pixels */
">>+++++ >>>>>>>>",
">+:----+ >>>>>>>",
"+#######++++++>>",
"+:---=-=-=-=-+ >",
"+:--=########+ >",
"+:-=************",
"+:--*$$$$$$$$$$.",
"+:-=*$$$$$$$$$$.",
"+:=-*;;;;;;;;;;.",
"+:-=*;::::::::;.",
"+:=-*;:@X::%::;.",
"+:-=*;XoX:O&%:;.",
"++++*;:X:::OO:;.",
">   *;::::::::;.",
">>>>*;;;;;;;;;;.",
">>>>............"
};
