/* XPM */
static char *setscreen21x_16x16[] = {
/* columns rows colors chars-per-pixel */
"16 16 10 1 ",
"  c black",
". c #555555",
"X c #AA5500",
"o c #FFFF55",
"O c navy",
"+ c blue",
"@ c #808080",
"# c #C0C0C0",
"$ c white",
"% c None",
/* pixels */
"%%%%%%%%%%%%%%%%",
"@@@@@@@@@@@@@@@@",
"#######$#######$",
"$$$$$$$#$$$$$$$#",
"$XXXXXX#$OOOOOO#",
"$Xooooo#$O+++++#",
"$Xo...o#$O++#++#",
"$Xooo.o#$O+##++#",
"$Xoo.oo#$O++#++#",
"$Xo...o#$O+###+#",
"$Xooooo#$O+++++#",
"################",
"                ",
"%%%$## %%%%$## %",
"%%$#### %%$#### ",
"%%      %%     %"
};
