/* XPM */
static char *terminal_32x32[] = {
/* columns rows colors chars-per-pixel */
"32 32 6 1 ",
"  c black",
". c blue",
"X c #808080",
"o c #C0C0C0",
"O c white",
"+ c None",
/* pixels */
"++++++++++++++++++++++++++++++++",
"++++++++++++++++++++++++++++++++",
"++++++++++++++++++++++++++++++++",
"oooooooooooooooooooooooooooooooo",
"o                              X",
"o oX .......O.O.O.O..... oX oX X",
"o XX ................... XX XX X",
"o                              X",
"o                              X",
"o                              X",
"o                              X",
"o     OOO     O                X",
"o    O   O    O                X",
"o    O      O  O               X",
"o    O         O               X",
"o    O   O      O              X",
"o     OOO   O   O OOOOOOO      X",
"o                              X",
"o                              X",
"o                              X",
"o                              X",
"o                              X",
"o                              X",
"o                              X",
"o                              X",
"o                              X",
"o                              X",
"o                              X",
"oXXXXXXXXXXXXXXXXXXXXXXXXXXXXXXX",
"++++++++++++++++++++++++++++++++",
"++++++++++++++++++++++++++++++++",
"++++++++++++++++++++++++++++++++"
};
