/* XPM */
static char * frameABL_xpm[] = {
"3 3 4 1",
" 	c #000000",
".	c #848284",
"+	c #DEDFDE",
"@	c #FFFFFF",
" .+",
" @@",
"   "};
