/* XPM */
static char * maximizeI_xpm[] = {
"25 42 5 1",
" 	c #848284",
".	c #DEDFDE",
"+	c #000000",
"@	c #C6C3C6",
"#	c #FFFFFF",
"     .................. +",
"     .@@@@@@@@@@@@@@@@@ +",
"     .@@@@@@@@@@@@@@@@@ +",
"     .@@+++++++++++++@@ +",
"     .@@+++++++++++++@@ +",
"     .@@+++++++++++++@@ +",
"     .@@+@@@@@@@@@@@+@@ +",
"     .@@+@@@@@@@@@@@+@@ +",
"     .@@+@@@@@@@@@@@+@@ +",
"     .@@+@@@@@@@@@@@+@@ +",
"     .@@+@@@@@@@@@@@+@@ +",
"     .@@+@@@@@@@@@@@+@@ +",
"     .@@+@@@@@@@@@@@+@@ +",
"     .@@+@@@@@@@@@@@+@@ +",
"     .@@+@@@@@@@@@@@+@@ +",
"     .@@+++++++++++++@@ +",
"     .@@@@@@@@@@@@@@@@@ +",
"     .@@@@@@@@@@@@@@@@@ +",
"                        +",
"    +++++++++++++++++++++",
"+++++++++++++++++++++++++",
"    +++++++++++++++++++.#",
"    ++@@@@@@@@@@@@@@@@@.#",
"    ++@@@@@@@@@@@@@@@@@.#",
"    ++@@+++++++++++++@@.#",
"    ++@@+++++++++++++@@.#",
"    ++@@+++++++++++++@@.#",
"    ++@@+@@@@@@@@@@@+@@.#",
"    ++@@+@@@@@@@@@@@+@@.#",
"    ++@@+@@@@@@@@@@@+@@.#",
"    ++@@+@@@@@@@@@@@+@@.#",
"    ++@@+@@@@@@@@@@@+@@.#",
"    ++@@+@@@@@@@@@@@+@@.#",
"    ++@@+@@@@@@@@@@@+@@.#",
"    ++@@+@@@@@@@@@@@+@@.#",
"    ++@@+@@@@@@@@@@@+@@.#",
"    ++@@+++++++++++++@@.#",
"    ++@@@@@@@@@@@@@@@@@.#",
"    ++@@@@@@@@@@@@@@@@@.#",
"    +...................#",
"    #####################",
"+++++++++++++++++++++++++"};
