/* XPM */
static char * restoreA_xpm[] = {
"25 42 6 1",
" 	c #000084",
".	c #848284",
"+	c #DEDFDE",
"@	c #000000",
"#	c #C6C3C6",
"$	c #FFFFFF",
"    .++++++++++++++++++.@",
"    .+#################.@",
"    .+#####@@@@@@@@@@##.@",
"    .+#####@@@@@@@@@@##.@",
"    .+#####@@@@@@@@@@##.@",
"    .+#####@########@##.@",
"    .+#####@########@##.@",
"    .+##@@@@@@@@@@##@##.@",
"    .+##@@@@@@@@@@##@##.@",
"    .+##@@@@@@@@@@##@##.@",
"    .+##@########@##@##.@",
"    .+##@########@@@@##.@",
"    .+##@########@#####.@",
"    .+##@########@#####.@",
"    .+##@########@#####.@",
"    .+##@@@@@@@@@@#####.@",
"    .+#################.@",
"    .+#################.@",
"    ....................@",
"    @@@@@@@@@@@@@@@@@@@@@",
"@@@@@@@@@@@@@@@@@@@@@@@@@",
"    @@@@@@@@@@@@@@@@@@@+$",
"    @@#################+$",
"    @@#####@@@@@@@@@@##+$",
"    @@#####@@@@@@@@@@##+$",
"    @@#####@@@@@@@@@@##+$",
"    @@#####@########@##+$",
"    @@#####@########@##+$",
"    @@##@@@@@@@@@@##@##+$",
"    @@##@@@@@@@@@@##@##+$",
"    @@##@@@@@@@@@@##@##+$",
"    @@##@########@##@##+$",
"    @@##@########@@@@##+$",
"    @@##@########@#####+$",
"    @@##@########@#####+$",
"    @@##@########@#####+$",
"    @@##@@@@@@@@@@#####+$",
"    @@#################+$",
"    @@#################+$",
"    @+++++++++++++++++++$",
"    $$$$$$$$$$$$$$$$$$$$$",
"@@@@@@@@@@@@@@@@@@@@@@@@@"};
