/* XPM */
static char * taskbuttonbg_xpm[] = {
"28 28 4 1",
" 	c #ffffff",
".	c #d4d0c8",
"+	c #403e3b",
"@	c #8b8984",
"                            ",
"............................",
"............................",
"...                        +",
"... ......................@+",
"... ......................@+",
"... ......................@+",
"... ......................@+",
"... ......................@+",
"... ......................@+",
"... ......................@+",
"... ......................@+",
"... ......................@+",
"... ......................@+",
"... ......................@+",
"... ......................@+",
"... ......................@+",
"... ......................@+",
"... ......................@+",
"... ......................@+",
"... ......................@+",
"... ......................@+",
"... ......................@+",
"... @@@@@@@@@@@@@@@@@@@@@@@+",
"...+++++++++++++++++++++++++",
"............................",
"............................",
"............................"};
