/* XPM */
static char * titleIJ_xpm[] = {
"1 21 2 1",
" 	c #848284",
".	c #000000",
" ",
" ",
" ",
" ",
" ",
" ",
" ",
" ",
" ",
" ",
" ",
" ",
" ",
" ",
" ",
" ",
" ",
" ",
" ",
" ",
"."};
