/* XPM */
static char *qarrow[] = {
/* columns rows colors chars-per-pixel */
"16 16 2 1 ",
"# c textcolor",
". c None",
/* pixels */
"................",
"................",
"........##..##..",
".........##..##.",
"..........##..##",
".........##..##.",
"........##..##..",
"................",
"................",
"................",
"................",
"................",
"................",
"................",
"................",
"................"
};
