/* XPM */
static char * ice2k_checkbox_16x16_xpm[] = {
"16 16 2 1",
" 	c None",
".	c textcolor",
"                ",
"                ",
"                ",
"                ",
"                ",
"            .   ",
"           ..   ",
"      .   ...   ",
"      .. ...    ",
"      .....     ",
"       ...      ",
"        .       ",
"                ",
"                ",
"                ",
"                "};
