/* XPM */
static char *monitors_16x16[] = {
/* columns rows colors chars-per-pixel */
"16 16 7 1 ",
"  c black",
". c navy",
"X c blue",
"o c #808080",
"O c #C0C0C0",
"+ c white",
"@ c None",
/* pixels */
"@@@oooooooooooo@",
"@@oOOOOOOOOOO+o ",
"@o+++++++++++Oo ",
"@o+         .Oo ",
"@o+ XXXXXXXX.Oo ",
"@o+ XXXXXXXX.Oo ",
"@o+ XXXXXXXX.Oo ",
"@o+ XXXXXXXX.Oo ",
"@o+ XXXXXXXX.Oo ",
"@o+..........Oo ",
"@oOOOOOOOOOOOOo ",
"@@             @",
"@@@@@oOOOO @@@@@",
"@@@oo+OOOOo  @@@",
"@@o++OOOOOOoo @@",
"@@@          @@@"
};
