/* XPM */
static char *pref_16x16[] = {
/* columns rows colors chars-per-pixel */
"16 16 12 1 ",
"  c black",
". c green",
"X c #808000",
"o c yellow",
"O c navy",
"+ c blue",
"@ c #008080",
"# c cyan",
"$ c #808080",
"% c #C0C0C0",
"& c white",
"* c None",
/* pixels */
"****************",
"$$$$$$$$$$$$ ***",
"$OOOOOOOOOOO ***",
"$$$$$$$$$$$$ ***",
"$%&&&&&&&&&& ***",
"$%&+.&XX&$$& ***",
"$%&.O&Xo $&  X *",
"$%&&&& Xo$& Xo *",
"$%&+#  & $&  X  ",
"$%&@# Xo&   &oX ",
"$%&&& X o&o&o X ",
"$%%%%% oX &XXo *",
"      XX  oX Xo ",
"******  * X *  *",
"*********   ****",
"****************"
};
