/* XPM */
static char *settings_32x32[] = {
/* columns rows colors chars-per-pixel */
"32 32 22 1 ",
"  c black",
". c gray3",
"X c gray11",
"o c #222222",
"O c gray16",
"+ c #666600",
"@ c gray30",
"# c #555555",
"$ c #5F5F5F",
"% c gray40",
"& c #777777",
"* c #999900",
"= c #CCCC00",
"- c #CCCC66",
"; c gray60",
": c #FFFF99",
"> c #C0C0C0",
", c gray80",
"< c #E7E7D6",
"1 c #EAEAEA",
"2 c #FFFBF0",
"3 c None",
/* pixels */
"33333333333333333333333333333333",
"33333333333333333333333333333333",
"33333333333333333333333333333333",
"33333333333333333333333333333333",
"3333;;;;;;;;;;;;;;;;o33333333333",
"3333;22222222222222%o33333333333",
"3333;2<>&&%%$$$$X<2%o33333333333",
"3333;2<>& .     O<2%o33333333333",
"3333;2<>&.<<1<1<#<2%o33333333333",
"3333;2<>& <<<> <@<2%o33333333333",
"3333;2<>& 1 > <++++%o33333333333",
"3333;2<>& << 1+2<<,+ 33333333333",
"3333;2<>&$++<<+;;;;+ 3++33333333",
"3333;2<>&+--  +<<,;+ .=* 3333333",
"3333;2<>&+----+2<,;+==*= 3333333",
"3333;2<<< +-:-+2<,;+=*=  3333333",
"3333;2<<<  :-++2<,;++=* .3333333",
"3333;2++++:-+<+2<,;+<+=*   33333",
"3333;2+--:-:- +1<,;+ --=-** 3333",
"3333;2 ++++-:--    -::- +++.3333",
"3333;2 +++ --:-:-:-:--: +++ 3333",
"3333;2.++ --= +-:-:  :-- ++ 3333",
"3333;2>  **- ++:-: +++-*  .33333",
"3333;2>. ** +++-:- +++**. 333333",
"3333%%%%%** +  +++.  +** 3333333",
"333333333** .33+++ 33 ** 3333333",
"333333333  .333+++ 333  33333333",
"333333333333333    3333333333333",
"33333333333333333333333333333333",
"33333333333333333333333333333333",
"33333333333333333333333333333333",
"33333333333333333333333333333333"
};
