#define checkbox_width 7
#define checkbox_height 7
static unsigned char checkbox_bits[] = {
   0x40, 0x60, 0x71, 0x3b, 0x1f, 0x0e, 0x04 };
