/* XPM */
static char *lock_32x32[] = {
/* columns rows colors chars-per-pixel */
"32 32 11 1 ",
"  c black",
". c #800000",
"X c red",
"o c #808000",
"O c yellow",
"+ c navy",
"@ c #008080",
"# c #808080",
"$ c #C0C0C0",
"% c white",
"& c None",
/* pixels */
"&&&&&&&&&&&&&&&     &&&&&&&&&&&&",
"&&&&&&&&&&&&& oooXoo  &&&&&&&&&&",
"&&&&&&&&&&&& ooXO$O$oX &&&&&&&&&",
"&&&&&&&&&&& oXO$o  oOoXo&&&&&&&&",
"&&&&&&&&&&oooO o&&&o$o$ &&&&&&&&",
"&&&&&&&&&& oO o&&&&&.oX &&&&&&&&",
"&&&&&&&&&ooO.o&&&&&&.o$ &&&&&&&&",
"&&&&&&&&&o$$ &&&&&&$.o$ o &&&&&&",
"&&&&&&&&&oOo &&&o@o@$o$ $@ &&&&&",
"&&&&&&&&&o$X o@o$$$#$oX $$@ &&&&",
"&&&&&&&&&oOo $$$$$$#Oo  ##+ &&&&",
"&&&&&&&&oo$o $$$$$$@# .+# $ &&&&",
"&&&&&&&o@oOX #$$$$$$##$#+$o &&&&",
"&&&&&&o@$o$o #$#$#$$$$+ $@$ &&&&",
"&&&&&#@%$.  +###$$$#+ #$o$# &&&&",
"&&&&&o $$%.+##$$$+  $#$@$@$ &&&&",
"&&&&&o$ #$$$$#+  $#$o$o$#$o &&&&",
"&&&&&o%$$.  .@$#$@$#.@$@$@$ &&&&",
"&&&&&o$%$##$#$#$o$o  $#$o$# &&&&",
"&&&&&o%$%#$@$@$@$@$  .$@$@$ &&&&",
"&&&&&o$%$$o$#$o$#$    o$#$o &&&&",
"&&&&&o%$%@$@$@$@$@    $@$@$ &&&&",
"&&&&&o$%$$#$o$#$o$   $#$o$# &&&&",
"&&&&&o%$%@$@$@$@$@$  @$@$@$ &&&&",
"&&&&&o$%$$o$#$o$#$o  $o$#$o &&&&",
"&&&&&o%$%@$@$@$@$@$  @$@$@+o&&&&",
"&&&&&o$%$$#$o$#$o$#$o$#$o+o&&&&&",
"&&&&&o%$%@$@$@$@$@$@$@$@+o&&&&&&",
"&&&&&.o%$$o$#$o$#$o$#$# o&&&&&&&",
"&&&&&& $%@$@$@$@$@$@o o&&&&&&&&&",
"&&&&&&& +o#$o$oo.+ oo&&&&&&&&&&&",
"&&&&&&&&o+ . +.oo&&&&&&&&&&&&&&&"
};
