/* XPM */
static char *pref_32x32[] = {
/* columns rows colors chars-per-pixel */
"32 32 16 1 ",
"  c black",
". c red",
"X c #008000",
"o c green",
"O c #808000",
"+ c yellow",
"@ c navy",
"# c blue",
"$ c #800080",
"% c magenta",
"& c #008080",
"* c cyan",
"= c #808080",
"- c #C0C0C0",
"; c white",
": c None",
/* pixels */
"::::::::::::::::::::::::::::::::",
"::::::::::::::::::::::::::::::::",
"======================== :::::::",
"=----------------------= :::::::",
"=-@@@@@@@@@@@@@@@@@@@@@= :::::::",
"=-@@@@@@@@@@@@@@@- - - = :::::::",
"=-@@@@@@@@@@@@@@@      = :::::::",
"=-====================== :::::::",
"=-;;;;;;;;;;;;;;;;;;;;;= :::::::",
"=-;;o#o;;;;&**;;;;$$.;;= :::::::",
"=-;;#o@;;;;&*X;;;;$%.;;= :::::::",
"=-;;#@@;;;;XXX;;;;..%;;= :::::::",
"=-;;;;;;;;;;;;;;;;;===== :::::::",
"=-;;O;O;;;;$%%;;;;=;;;-  :::::::",
"=-;;+O;;;;;$-@OO;;=====  :==::::",
"=-;;O+O;;;;%%O+;  =;-==   +; :::",
"=-;;;;;;;;;;;O;+;O=;-== O+;+ :::",
"=-;;#*@;;;;*& O;+;=;-== +;+O :::",
"=-;;&*@;;;;*& O;; =;-==  +;O :::",
"=-;;&##;;;OOOO+; ;=;-== ; +;   :",
"=-;;;;;;;;O+;+;+; =;-==  +;+;+; ",
"=--------- OOOO;+;      +;+ OOO ",
"========== OOO O;+;+;+;+;+O OOO ",
"           OO +;+  O+;O  ;+; OO ",
":::::::::::  OO+ OOO;+ OOO;O   :",
":::::::::::::O+ OOOO+; OOOOO  ::",
":::::::::::::O+ O  OOO   OOO :::",
":::::::::::::O+  ::OOO :: OO :::",
"::::::::::::::  ::: OO :::  ::::",
":::::::::::::::::::    :::::::::",
"::::::::::::::::::::::::::::::::",
"::::::::::::::::::::::::::::::::"
};
