/* XPM */
static char *themes_32x32[] = {
/* columns rows colors chars-per-pixel */
"32 32 29 1 ",
"  c gray20",
". c #660000",
"X c #5F5F5F",
"o c gray40",
"O c #800000",
"+ c #990000",
"@ c #993333",
"# c #CC3333",
"$ c #996666",
"% c #FF6666",
"& c #008000",
"* c #66CC00",
"= c #FFCC33",
"- c #999966",
"; c #CCCC66",
": c navy",
"> c #333399",
", c #800080",
"< c #CC33CC",
"1 c #808080",
"2 c #868686",
"3 c gray59",
"4 c #B2B2B2",
"5 c #CC9999",
"6 c #CCCC99",
"7 c #FFFF80",
"8 c #C0C0C0",
"9 c white",
"0 c None",
/* pixels */
"000000000000000;;;;;000000000000",
"00000000000000;99999o00000000000",
"0000000000000;977<<7= 0000000000",
"000000411111=977,<<7= 1111111100",
"0000004>>>>>=9777,,7= >83838>100",
"0000004>>>>>=97*77777= 22222>100",
"000000488888=9***77777= 88888100",
"000000484444=9&*&7776-2= 4448100",
"000000489999=97&7777-9o7= 898100",
"000000489999=977##776o877= 98100",
"000000489999=97.##.777777= 98100",
"00000045$O999=97...7>>777= 98100",
"0000004%#@.99=97777:>>:7== 98100",
"0000005%##.X99=97777::77=o998100",
"000000%###@.999o========o9998100",
"000005%####.X999oooooooo99998100",
"00000%##.##@.999999999999999- 00",
"00005%##+###.X9999999999999- 8 0",
"0000%##.2%##@.999999999999-9 9 0",
"0005%##+2%###.X9999999999-9 89 0",
"000%##.229%##@.999999999-97 89 0",
"005%##+299%###.X99999---979 898 ",
"00%##.%%%%%%##@.9999-887799  99 ",
"05%############.X888-9 9999 9o9 ",
"0%##.........##@.111-7 7777 8 9 ",
"5%##.2222222%###.X00o- ====  89 ",
"%##.220000000%##@.000oo-=== 898 ",
"....200000000.....20000o-== 89 0",
"022220000000002222200000o-= 89 0",
"0000000000000000000000000o-= 9 0",
"00000000000000000000000000o- 8 0",
"000000000000000000000000000oo 00"
};
