/* XPM */
static char *themes_16x16[] = {
/* columns rows colors chars-per-pixel */
"16 16 21 1 ",
"  c gray20",
". c #660000",
"X c #5F5F5F",
"o c gray40",
"O c #777777",
"+ c #800000",
"@ c #990000",
"# c #993333",
"$ c #CC3333",
"% c #996666",
"& c #FF6666",
"* c #FFCC33",
"= c #CCCC66",
"- c #333399",
"; c #CC33CC",
": c #808080",
"> c #B2B2B2",
", c #FFFF80",
"< c #C0C0C0",
"1 c white",
"2 c None",
/* pixels */
"222222222===2222",
"22222222*,,,o222",
"22>:::::*;;,o222",
"22>-----*,,,* 22",
"22>-----*,$$1* 2",
"22><<<<<<*,,--* ",
"22>111111o***** ",
"22>&%X1111ooooo2",
"22>$$+111111<:22",
"22&$+#X11111<:22",
"22$+.$+11111<:22",
"2&$@O+#X1111<:22",
"2$+.1+$+<<<<<:22",
"&$$$$$$#X:::::22",
"$+.++++$+2222222",
"..:222:..2222222"
};
