/* XPM */
static char *calculator_32x32[] = {
/* columns rows colors chars-per-pixel */
"32 32 7 1 ",
"  c black",
". c navy",
"X c #008080",
"o c cyan",
"O c #C0C0C0",
"+ c white",
"@ c None",
/* pixels */
"@@@@@@@@@@@@@@@@@@@@@@@@@@@@@@@@",
"@@@@@@@@@@@@@@@@@@@@@@@@@@@@@@@@",
"@@@@@@@@@@@@@@@@@@@@@@@@@@@@@@@@",
"@@@@@@@@@@@@@@@@@@@@@@@@@@@@@@@@",
"@@@@@@@@@@@@@@@@@@@@@@@@@@@@@@@@",
"@@XXXXXXXXXXXXXXXXXXXXXXXXXXXXX@",
"@X+o+o+o+o+o+o+o+o+o+o+o+o+o+o. ",
"@XoXX               XXXXXXXXXX. ",
"@X+XX OOOOOOOOOOOOOOXXXXXXXXXX. ",
"@XoXX +++++++++++++OXXXXXXXXXX. ",
"@X+XX OOOOOOOOOOOOOOXXXXXXXXXX. ",
"@XoXXXXXXXXXXXXXXXXXXXXXXXXXXX. ",
"@X+XX++ X++ X++ X++ X++ X++ XX. ",
"@XoXX+O X+O X+O X+O X+O X+O XX. ",
"@X+XX   X   X   X   X   X   XX. ",
"@XoXXXXXXXXXXXXXXXXXXXXXXXXXXX. ",
"@X+XX++ X++ X++ X++ X++ X++ XX. ",
"@XoXX+O X+O X+O X+O X+O X+O XX. ",
"@X+XX   X   X   X   X   X   XX. ",
"@XoXXXXXXXXXXXXXXXXXXXXXXXXXXX. ",
"@X+XX++ X++ X++ X++ X++++++ XX. ",
"@XoXX+O X+O X+O X+O X+OOOOO XX. ",
"@X+XX   X   X   X   X       XX. ",
"@XoXXXXXXXXXXXXXXXXXXXXXXXXXXX. ",
"@XX............................ ",
"@@                             @",
"@@@@@@@@@@@@@@@@@@@@@@@@@@@@@@@@",
"@@@@@@@@@@@@@@@@@@@@@@@@@@@@@@@@",
"@@@@@@@@@@@@@@@@@@@@@@@@@@@@@@@@",
"@@@@@@@@@@@@@@@@@@@@@@@@@@@@@@@@",
"@@@@@@@@@@@@@@@@@@@@@@@@@@@@@@@@",
"@@@@@@@@@@@@@@@@@@@@@@@@@@@@@@@@"
};
