/* XPM */
static char * 16x16_xpm[] = {
"16 16 8 1",
" 	c None",
".	c #808080",
"+	c #FFFFFF",
"@	c #0000FF",
"#	c #000000",
"$	c #EBEBEB",
"%	c #FF0000",
"&	c #008000",
"................",
".+@@@@@@@@@@@++#",
".$$$$$$$$$$$$$$#",
".++++++++++++++#",
".++%%%++++++&++#",
".+%+++%++++&&&+#",
".+++++%++++&&&+#",
".++++%+++++&&&+#",
".+++%+++++++&++#",
".+++%++++@++&++#",
".+++++@@@@@++++#",
".+++%++++@++&++#",
".++++++++++++++#",
".++++++++++++++#",
".###############",
"                "};
