/* XPM */
static char * terminal_xpm[] = {
"16 16 6 1",
" 	c None",
".	c #C0C0C0",
"+	c #000000",
"@	c #808080",
"#	c #0000FF",
"$	c #FFFFFF",
"................",
".++++++++++++++@",
".@@###.#.#.###@@",
".++++++++++++++@",
".++$$++++$+++++@",
".+$++$+$+$+++++@",
".+$+++++++$++++@",
".+$++$+$++$++++@",
".++$$++++++$+++@",
".++++++++++.+++@",
".++++++++++++++@",
".++++++++++++++@",
".@@@@@@@@@@@@@@@",
"                ",
"                ",
"                "};
