/* XPM */
static char *error32[] = {
/* columns rows colors chars-per-pixel */
"32 32 5 1 ",
"  c #800000",
". c red",
"X c #808080",
"o c white",
"O c None",
/* pixels */
"OOOOOOOOOO          OOOOOOOOOOOO",
"OOOOOOOOOO          OOOOOOOOOOOO",
"OOOOOO    ..........    OOOOOOOO",
"OOOOOO    ..........    OOOOOOOO",
"OOOO  ..................  OOOOOO",
"OOOO  ..................  OOOOOO",
"OO  ....oo..........oo....  OOOO",
"OO  ....oo..........oo....  OOOO",
"OO  ..oooooo......oooooo..  XXOO",
"OO  ..oooooo......oooooo..  XXOO",
"  ......oooooo..oooooo......  OO",
"  ......oooooo..oooooo......  OO",
"  ........oooooooooo........  XX",
"  ........oooooooooo........  XX",
"  ..........oooooo..........  XX",
"  ..........oooooo..........  XX",
"  ........oooooooooo........  XX",
"  ........oooooooooo........  XX",
"  ......oooooo..oooooo......  XX",
"  ......oooooo..oooooo......  XX",
"OO  ..oooooo......oooooo..  XXXX",
"OO  ..oooooo......oooooo..  XXXX",
"OO  ....oo..........oo....  XXOO",
"OO  ....oo..........oo....  XXOO",
"OOOO  ..................  XXXXOO",
"OOOO  ..................  XXXXOO",
"OOOOOO    ..........    XXXXOOOO",
"OOOOOO    ..........    XXXXOOOO",
"OOOOOOOOXX          XXXXXXOOOOOO",
"OOOOOOOOXX          XXXXXXOOOOOO",
"OOOOOOOOOOOOXXXXXXXXXXOOOOOOOOOO",
"OOOOOOOOOOOOXXXXXXXXXXOOOOOOOOOO"
};
