/* XPM */
static char *info32[] = {
/* columns rows colors chars-per-pixel */
"32 32 6 1 ",
"  c black",
". c blue",
"X c #808080",
"o c #C0C0C0",
"O c white",
"+ c None",
/* pixels */
"++++++++XXXXXXXXXXXXXX++++++++++",
"++++++++XXXXXXXXXXXXXX++++++++++",
"++++XXXXOOOOOOOOOOOOOO    ++++++",
"++++XXXXOOOOOOOOOOOOOO    ++++++",
"++XXOOOOOOOO......OOOOOOoo  ++++",
"++XXOOOOOOOO......OOOOOOoo  ++++",
"++XXOOOOOOOOXX....OOOOOOOO  XX++",
"++XXOOOOOOOOXX....OOOOOOOO  XX++",
"XXOOOOOOOOOOOOOOOOOOOOOOOOoo  ++",
"XXOOOOOOOOOOOOOOOOOOOOOOOOoo  ++",
"XXOOOOOOOOXX......OOOOOOOOOO  XX",
"XXOOOOOOOOXX......OOOOOOOOOO  XX",
"XXOOOOOOOOOOXX....OOOOOOOOOO  XX",
"XXOOOOOOOOOOXX....OOOOOOOOOO  XX",
"XXOOOOOOOOOOXX....OOOOOOOOOO  XX",
"XXOOOOOOOOOOXX....OOOOOOOOOO  XX",
"XXooOOOOOOOOXX....OOOOOOOOoo  XX",
"XXooOOOOOOOOXX....OOOOOOOOoo  XX",
"++XXOOOOOO..........OOOOoo  XX++",
"++XXOOOOOO..........OOOOoo  XX++",
"++++  ooOOOOOOOOOOOOOOoo  XXXX++",
"++++  ooOOOOOOOOOOOOOOoo  XXXX++",
"++++++    ooOOOOOOoo    XXXX++++",
"++++++    ooOOOOOOoo    XXXX++++",
"++++++++++    ooOO  XXXX++++++++",
"++++++++++    ooOO  XXXX++++++++",
"++++++++++++++  OO  XX++++++++++",
"++++++++++++++  OO  XX++++++++++",
"++++++++++++++++    XX++++++++++",
"++++++++++++++++    XX++++++++++",
"++++++++++++++++++XXXX++++++++++",
"++++++++++++++++++XXXX++++++++++"
};
