/* XPM */
static char *warning32[] = {
/* columns rows colors chars-per-pixel */
"32 32 5 1 ",
"  c black",
". c #808000",
"X c yellow",
"o c #808080",
"O c None",
/* pixels */
"OOOOOOOOOOOO......OOOOOOOOOOOOOO",
"OOOOOOOOOOOO......OOOOOOOOOOOOOO",
"OOOOOOOOOO..XXXXXX  OOOOOOOOOOOO",
"OOOOOOOOOO..XXXXXX  OOOOOOOOOOOO",
"OOOOOOOOOO..XXXXXX  ooOOOOOOOOOO",
"OOOOOOOOOO..XXXXXX  ooOOOOOOOOOO",
"OOOOOOOO..XXXXXXXXXX  OOOOOOOOOO",
"OOOOOOOO..XXXXXXXXXX  OOOOOOOOOO",
"OOOOOOOO..XXXX  XXXX  ooOOOOOOOO",
"OOOOOOOO..XXXX  XXXX  ooOOOOOOOO",
"OOOOOO..XXXX      XXXX  OOOOOOOO",
"OOOOOO..XXXX      XXXX  OOOOOOOO",
"OOOOOO..XXXX      XXXX  ooOOOOOO",
"OOOOOO..XXXX      XXXX  ooOOOOOO",
"OOOO..XXXXXX      XXXXXX  OOOOOO",
"OOOO..XXXXXX      XXXXXX  OOOOOO",
"OOOO..XXXXXX..  ..XXXXXX  ooOOOO",
"OOOO..XXXXXX..  ..XXXXXX  ooOOOO",
"OO..XXXXXXXXXX  XXXXXXXXXX  OOOO",
"OO..XXXXXXXXXX  XXXXXXXXXX  OOOO",
"OO..XXXXXXXXXXXXXXXXXXXXXX  ooOO",
"OO..XXXXXXXXXXXXXXXXXXXXXX  ooOO",
"..XXXXXXXXXXoo  ooXXXXXXXXXX  OO",
"..XXXXXXXXXXoo  ooXXXXXXXXXX  OO",
"..XXXXXXXXXXoo  ooXXXXXXXXXX  oo",
"..XXXXXXXXXXoo  ooXXXXXXXXXX  oo",
"..XXXXXXXXXXXXXXXXXXXXXXXXXX  oo",
"..XXXXXXXXXXXXXXXXXXXXXXXXXX  oo",
"OO..                        oooo",
"OO..                        oooo",
"OOOOooooooooooooooooooooooooooOO",
"OOOOooooooooooooooooooooooooooOO"
};
