/* XPM */
static char *newmail[] = {
/* columns rows colors chars-per-pixel */
"16 16 7 1 ",
"  c black",
". c #008000",
"X c yellow",
"o c #808080",
"O c #C0C0C0",
"+ c white",
"@ c None",
/* pixels */
"@Oo@@@@@@@@@@@@@",
"@@@o @@@@@@@@@@@",
"O@@@@@@@@@@@@@@@",
"@o @@@oo@@@@@@@@",
"@@@@@o Ooo@@@@@@",
" @@@oX XOXoo@@@@",
"@@@oXOX XO...o@@",
"@@oOOOO .......o",
"@oXOXOXO....++. ",
"@  XOXO....++...",
"@@@  OX...++....",
"@@@@@  .+++.....",
"@@@@@@@ .++....@",
"@@@@@@@@.......@",
"@@@@@@@@@@...@@@",
"@@@@@@@@@@@@@@@@"
};
