/* XPM */
static char *key_32x32[] = {
/* columns rows colors chars-per-pixel */
"32 32 5 1 ",
"  c black",
". c #808080",
"X c #C0C0C0",
"o c white",
"O c None",
/* pixels */
"OOOOOOOOOOOOOOOOOOOOOOOOOOOOOOOO",
"OOOOOOOOOOOOOOOOOOOOOOOOOOOOOOOO",
"OOOOOOOOOOOOOOOOOOOOOOOOOOOOOOOO",
"OOOOOOOOOOOOOOOOOOOOOOOOOOOOOOOO",
"OOOOOOOOOOO...OOOOOOOOOOOOOOOOOO",
"OOOOOOOOO..XXX..OOOOOOOOOOOOOOOO",
"OOOOOOO..XXXXXXX..OOOOOOOOOOOOOO",
"OOOO...XXXXX..XXXX..OOOOOOOOOOOO",
"OOOO.oXXXX..XXXXXXXo.OOOOOOOOOOO",
"OOO.ooooXXXXXXXXXoo.. OOOOOOOOOO",
"OOO.oXXoooXXXXXoo.... OOOOOOOOOO",
"OO.oXXXXXoooooo...... OOOOOOOOOO",
"OO.oXXXXXXXXo........ OOOOOOOOOO",
"OO.oXXXXXXXXo...........OOOOOOOO",
"O.oXXXXXXXXXo........XXX..OOOOOO",
"O.oXXXXXXXXXo......XX...XX..OOOO",
"O.XXXXXXXXXXo....XXX.XXX.XXX..OO",
"OO..XXXXXXXXo..oXXXX.XXX.XXXXo.O",
"OOOO..XXXXXXo.ooooXXX...XXXoo.. ",
"OOOOOO..XXXXo.oXXoooXXXXXoo.... ",
"OOOOOOOO..XXooXXXXXoooooo...... ",
"OOOOOOOOOO..ooXXXXXXXXo........ ",
"OOOOOOOOOOOO..XXXXXXXXo........ ",
"OOOOOOOOOOOOOO..XXXXXXo......  O",
"OOOOOOOOOOOOOOOO..XXXXo....  OOO",
"OOOOOOOOOOOOOOOOOO..XXo..  OOOOO",
"OOOOOOOOOOOOOOOOOOOO...  OOOOOOO",
"OOOOOOOOOOOOOOOOOOOOOOOOOOOOOOOO",
"OOOOOOOOOOOOOOOOOOOOOOOOOOOOOOOO",
"OOOOOOOOOOOOOOOOOOOOOOOOOOOOOOOO",
"OOOOOOOOOOOOOOOOOOOOOOOOOOOOOOOO",
"OOOOOOOOOOOOOOOOOOOOOOOOOOOOOOOO"
};
