/* XPM */
static char * 32x32_xpm[] = {
"32 32 7 1",
" 	c None",
".	c #808080",
"+	c #FFFFFF",
"@	c #000000",
"#	c #0000FF",
"$	c #FF0000",
"%	c #008000",
"                                ",
"     ......................     ",
"     .+@##############@+@+@     ",
"     .@@@@@@@@@@@@@@@@@@@@@     ",
"     .++++++++++++++++++++@     ",
"     .++++++++++++++++++++@     ",
"     .+++$$$$++++++++%%%++@     ",
"     .++$$$$$$++++++%%%%%+@     ",
"     .+$$++++$$+++++%%%%%+@     ",
"     .+++++++$$+++++%%%%%+@     ",
"     .++++++$$++++++%%%%++@     ",
"     .+++++$$++++++++%%%++@     ",
"     .++++$$+++++#+++%%+++@     ",
"     .++++$$+++++##++%%+++@     ",
"     .+++++++#######++++++@     ",
"     .++++$$+++++##++%%+++@     ",
"     .++++$$+++++#+++%%+++@     ",
"     .++++++++++++++++++++@     ",
"     .++++++++++++++++++++@     ",
"     .++++++++++++++++++++@     ",
"     .@@@@@@@@@@@@@@@@@@@@@     ",
"                                ",
"                                ",
"                                ",
"                                ",
"  @  @ @ @@@ @@  @ @  @   @  @@ ",
" @ @ @ @ @   @ @ @ @ @ @ @ @ @ @",
" @ @ @ @ @@@ @@  @@@ @ @ @ @ @@ ",
" @ @ @ @ @   @ @ @ @ @ @ @ @ @ @",
"  @   @  @@@ @ @ @ @  @   @  @ @",
"                                ",
"                                "};
