/* XPM */
static char *reboot_16x16[] = {
/* columns rows colors chars-per-pixel */
"16 16 21 1 ",
"  c black",
". c gray3",
"X c #330066",
"o c gray30",
"O c #555555",
"+ c #777777",
"@ c #00AA00",
"# c #55FF55",
"$ c navy",
"% c #333399",
"& c #3300CC",
"* c blue",
"= c #868686",
"- c gray60",
"; c #B2B2B2",
": c #C0C0C0",
"> c gray80",
", c #E7E7D6",
"< c #EAEAEA",
"1 c #F8F8F8",
"2 c None",
/* pixels */
"222===2222222222",
"2==;:;=====22222",
"=:1<::;;+:;+=222",
"+,=>1,::;-=:;+=2",
"=,X$=>1<::;-=;+ ",
"=,X&%$=>1,:+ -+ ",
"=,X&#&%$::-+ -+.",
"=,X@#@&$>:-+ -+ ",
"=,X#*##$>:-+ -+ ",
"=> %#@*$>:-+ -+ ",
"=:>:$$&$>:-+ + 2",
"O+-:>:$$>:-+ .22",
"2OO+-:>:>:-+ 222",
"222OO=-:::-o 222",
"22222OO=-=  2222",
"2222222OO 222222"
};
