/* XPM */
static char *suspend_16x16[] = {
/* columns rows colors chars-per-pixel */
"16 16 19 1 ",
"  c black",
". c #330033",
"X c #000066",
"o c #5F5F5F",
"O c #777777",
"+ c #808000",
"@ c #FFFF33",
"# c #333399",
"$ c #3333CC",
"% c #3333FF",
"& c #868686",
"* c gray60",
"= c #B2B2B2",
"- c #C0C0C0",
"; c gray80",
": c gray89",
"> c #EAEAEA",
", c #F8F8F8",
"< c None",
/* pixels */
"<<<&&&<<<<<<<<<<",
"<&&=-=&&&&&<<<<<",
"&-,>--==O-=O&<<<",
"O:&;,:--=*&-=O&<",
"&:.X&;,>--=*&=O ",
"&:.$#X&;,:-O *O ",
"&:.$%@#X--*O *O ",
"&:.$@+$X;-*O *O ",
"&:.$@+$X;-*O *O ",
"&; #%@%X;-*O *O ",
"&-;-XX$X;-*O O <",
"oO*-;-XX;-*O  <<",
"<ooO*-;-;-*O <<<",
"<<<oo&*---*o <<<",
"<<<<<oo&*&  <<<<",
"<<<<<<<oo <<<<<<"
};
