#define terminal_width 16
#define terminal_height 16
static char terminal_bits[] = {
  0xFF, 0xFF, 0x00, 0x00, 0xFE, 0x7F, 0x98, 0x3A, 0xFE, 0x7F, 0xE6, 0x7D, 
  0x5A, 0x7D, 0xFA, 0xFB, 0x5A, 0x7B, 0xE6, 0x77, 0xFE, 0x77, 0xFE, 0x7F, 
  0xFE, 0x7F, 0x00, 0x80, 0xFF, 0xFF, 0xFF, 0xFF, };
