/* XPM */
static char * toolbuttonbg_xpm[] = {
"1 28 3 1",
" 	c lightcolor",
"/	c basecolor",
".	c selbackcolor",
" ",
"/",
"/",
"/",
"/",
".",
".",
".",
".",
".",
".",
".",
".",
".",
".",
".",
".",
".",
".",
".",
".",
".",
".",
"/",
"/",
"/",
"/",
"/"};
