/* XPM */
static char *windows[] = {
/* columns rows colors chars-per-pixel */
"20 20 11 1 ",
"  c black",
". c red",
"X c #008000",
"o c green",
"O c yellow",
"+ c navy",
"@ c magenta",
"# c #808080",
"$ c #C0C0C0",
"% c #FFFFFF",
"& c None",
/* pixels */
"&&&&&&&&&&&&&&&&&&&&",
"&&&&&&&&&&&&&&&&&&&&",
"&&########### &&&&&&",
"&&#++++++++++ &&&&&&",
"&&#++++++++++ &&&&&&",
"&&#$$$$$$$$$$ &&&&&&",
"&&#%%%%%%%%%$ &&&&&&",
"&&#%oX########### &&",
"&&#%XO#++++++++++ &&",
"&&#%%X#++++++++++ &&",
"&&#%%%#$$$$$$$$$$ &&",
"&&#$$$#%%%%%%%%%$ &&",
"&&    #%oXX%%@@%$ &&",
"&&&&&&#%XOX%.O.%$ &&",
"&&&&&&#%%XX%%..%$ &&",
"&&&&&&#%%%%%%%%%$ &&",
"&&&&&&#$$$$$$$$$$ &&",
"&&&&&&            &&",
"&&&&&&&&&&&&&&&&&&&&",
"&&&&&&&&&&&&&&&&&&&&"
};
