/* XPM */
static char * start_xpm[] = {
"22 22 9 1",
" 	c #C6C3C6",
".	c #FF0000",
"+	c #840000",
"@	c #00FF00",
"#	c #008200",
"$	c #0000FF",
"%	c #000084",
"&	c #FFFF00",
"*	c #848200",
"                      ",
"                      ",
"                      ",
"       ...            ",
"      .....+          ",
"      .....+ @@  @#   ",
"     ......+ @@@@@#   ",
"     .....+ @@@@@@#   ",
"     .++..+ @@@@@#    ",
"        ++ #@@@@@#    ",
"     $$$    ##@@#     ",
"    $$$$$%    ##      ",
"    $$$$$% &&  &*     ",
"   $$$$$$% &&&&&*     ",
"   $$$$$% &&&&&&*     ",
"   $%%$$% &&&&&*      ",
"      %% *&&&&&*      ",
"          **&&*       ",
"            **        ",
"                      ",
"                      ",
"                      "};
