/* XPM */
static char *app_32x32[] = {
/* columns rows colors chars-per-pixel */
"32 32 10 1 ",
"  c black",
". c #800000",
"X c red",
"o c #008000",
"O c green",
"+ c #808000",
"@ c yellow",
"# c navy",
"$ c blue",
"% c None",
/* pixels */
"%%%%%%%%%%%%%%%%%%%%%%%%%%%%%%%%",
"%%%%%%%%%%%%%%%%%%%%%%%%%%%%%%%%",
"%%%%%%%%%%%%%%%%%%%%%%%%%%%%%%%%",
"%%%%%%%%%%%%%%%%%%%%%%%%%%%%%%%%",
"%%%%%%%%%%%%%%%%%%%%%%%%%%%%%%%%",
"%%%%%%%%%%%%%%%%%%%        %%%%%",
"%%%%%%%%%%%%%%%%%            %%%",
"% %%%%%%%%%%%% %              %%",
"% %% %%%%% %   %   .XX  OOo   %%",
"%%%  %% %  %   %  XXXX  OOOO  %%",
"%%% %%  %  % %%%  XXXX  OOOO  %%",
"%X%%%% %% %%%%X%  XXXX  OOOO  %%",
"%X%%X%%%%%X%XXX%  XXXX  OOOO  %%",
"%%%XX%%X%XX%XXX%  X.      oO  %%",
"%%%X%%XX%XX%X%%%              %%",
"% %%%%X%%X%%%% %              %%",
"% %% %%%%% %   %   #$$  @@+   %%",
"%%%  %% %  %   %  $$$$  @@@@  %%",
"%%% %%  %  % %%%  $$$$  @@@@  %%",
"%$%%%% %% %%%%$%  $$$$  @@@@  %%",
"%$%%$%%%%%$%$$$%  $$$$  @@@@  %%",
"%%%$$%%$%$$%$$$%  $#      +@  %%",
"%%%$%%$$%$$%$%%%              %%",
"% %%%%$%%$%%%% %              %%",
"% %% %%%%% %   %    %%%%%%    %%",
"%%%  %% %  %   %  %%%%%%%%%%  %%",
"%%% %%  %  % %%%%%%%%%%%%%%%%%%%",
"%%%%%% %% %%%%%%%%%%%%%%%%%%%%%%",
"%%%%%%%%%%%%%%%%%%%%%%%%%%%%%%%%",
"%%%%%%%%%%%%%%%%%%%%%%%%%%%%%%%%",
"%%%%%%%%%%%%%%%%%%%%%%%%%%%%%%%%",
"%%%%%%%%%%%%%%%%%%%%%%%%%%%%%%%%"
};
