/* XPM */
static char *folder_32x32[] = {
/* columns rows colors chars-per-pixel */
"32 32 10 1 ",
"  c black",
". c gray3",
"X c #333300",
"o c #999900",
"O c #CCCC66",
"+ c #FFCC99",
"@ c #FFFF99",
"# c #FFFBF0",
"$ c #F8F8F8",
"% c None",
/* pixels */
"%%%%%%%%%%%%%%%%%%%%%%%%%%%%%%%%",
"%%%%%%%%%%%%%%%%%%%%%%%%%%%%%%%%",
"%%%%ooooooooo.%%%%%%%%%%%%%%%%%%",
"%%%o$@@@@@@@@o.%%%%%%%%%%%%%%%%%",
"%%o$@@@@@@@@@@o.%%%%%%%%%%%%%%%%",
"%o#@@@@@@@@@@@@o.%%%%%%%%%%%%%%%",
"oOOOOOOOOOOOOOOOoooooooooooooo%%",
"o$$$$$$$$$$$$$$$$$$$$$$$$$$$$$ %",
"o$@@@@@@@@@@@@@@@@@@@+@@+@@@+@O.",
"o$@@@@@@@@@@@@@+@+@+@@@+@@@+@+OX",
"o$@@@@@@@@@@@@@@@@@@@@+@@++@@@OX",
"o$@@@@@@@@@@@@@@@@+@+@@@+@@@@+OX",
"o$@@@@@@@@@@+@+@+@@@@@@@@+@+@+OX",
"o$@@@@@@@@@@@@@@@@+@+@+@+@@@+@OX",
"o$@@@@@@@@+@@@@+@@@@@@@+@@++@+OX",
"o$@@@@@@@@@@@+@@+@+@@+@@+@@@+@OX",
"o$@@@@@@+@@@@@@@@@@@+@+@@++@@+OX",
"o$@@@@@@@@+@+@+@++@+@@@@+@@++@OX",
"o$@@@@+@@@@@@@@@@@@@+@++@+++@+OX",
"o$@@@@@@+@@@+@+@+@+@@+@@+@@+++OX",
"o$@@@@@@@@@+@@@@@+@++@++@++@+@OX",
"o$@+@+@@+@+@@+@+@@@@@++++@++++OX",
"o$@@@@@@@@@+@@+@++@++@@@++++@+OX",
"o$@@+@+@@+@@@+@+@@+@@+++@+@@++OX",
"o$+@@@@@+@@++@@+@+@@+++@++++++OX",
"o$@@@+@+@@+@@++@+@++@@+++@++++OX",
"o$+@+@+@@+@+@@@+@+@@++@+@+++@+OX",
"oOOOOOOOOOOOOOOOOOOOOOOOOOOOOOOX",
"%XXXXXXXXXXXXXXXXXXXXXXXXXXXXXX%",
"%%%%%%%%%%%%%%%%%%%%%%%%%%%%%%%%",
"%%%%%%%%%%%%%%%%%%%%%%%%%%%%%%%%",
"%%%%%%%%%%%%%%%%%%%%%%%%%%%%%%%%"
};
