/* XPM */
static char *setscreen21_32x32[] = {
/* columns rows colors chars-per-pixel */
"32 32 7 1 ",
"  c black",
". c navy",
"X c blue",
"o c #808080",
"O c #C0C0C0",
"+ c white",
"@ c None",
/* pixels */
"@@@@@@@@@@@@@@@@@@@@@@@@@@@@@@@@",
"@@@@@@@@@@@@@@@@@@@@@@@@@@@@@@@@",
"@@@@@@@@@@@@@@@@@@@@@@@@@@@@@@@@",
"@@@@@@@@@@@@@@@@@@@@@@@@@@@@@@@@",
"@@@@@@@@@@@@@@@@@@@@@@@@@@@@@@@@",
"@@@@@@@@@@@@@@@@@@@@@@@@@@@@@@@@",
"@@@@@@@@@@@@@@@@@@@@@@@@@@@@@@@@",
"@@@@@@@@@@@@@@@@@@@@@@@@@@@@@@@@",
"@@oooooooooooo@@@@oooooooooooo@@",
"@oOOOOOOOOOO+o @@oOOOOOOOOOO+o @",
"o+++++++++++Oo @o+++++++++++Oo @",
"o+..........Oo @o+..........Oo @",
"o+.XXXXXXXXXOo @o+.XXXXXXXXXOo @",
"o+.XXXOOOXXXOo @o+.XXXXOXXXXOo @",
"o+.XXXXXOXXXOo @o+.XXXOOXXXXOo @",
"o+.XXXXOXXXXOo @o+.XXXXOXXXXOo @",
"o+.XXXOOOXXXOo @o+.XXXOOOXXXOo @",
"o+.XXXXXXXXXOo @o+.XXXXXXXXXOo @",
"oOOOOOOOOOOOOo @oOOOOOOOOOOOOo @",
"@             @@@             @@",
"@@@@oOOOO @@@@@@@@@@oOOOO @@@@@@",
"@@oo+OOOOo  @@@@@@oo+OOOOo  @@@@",
"@o++OOOOOOoo @@@@o++OOOOOOoo @@@",
"@@          @@@@@@          @@@@",
"@@@@@@@@@@@@@@@@@@@@@@@@@@@@@@@@",
"@@@@@@@@@@@@@@@@@@@@@@@@@@@@@@@@",
"@@@@@@@@@@@@@@@@@@@@@@@@@@@@@@@@",
"@@@@@@@@@@@@@@@@@@@@@@@@@@@@@@@@",
"@@@@@@@@@@@@@@@@@@@@@@@@@@@@@@@@",
"@@@@@@@@@@@@@@@@@@@@@@@@@@@@@@@@",
"@@@@@@@@@@@@@@@@@@@@@@@@@@@@@@@@",
"@@@@@@@@@@@@@@@@@@@@@@@@@@@@@@@@"
};
