/* XPM */
static char *mail[] = {
/* columns rows colors chars-per-pixel */
"16 16 9 1 ",
"  c black",
". c #800000",
"X c red",
"o c yellow",
"O c blue",
"+ c #808080",
"@ c #C0C0C0",
"# c white",
"$ c None",
/* pixels */
"$$$$$$$++++$$$$$",
"$$$$$$+#### $$$$",
"$$$$$+###### $$$",
"$$$$+#######o $$",
"+++++++++ #o#o $",
"+######o@ +++++ ",
"+#######@ #oXX@ ",
"+####o#o@ o#..@ ",
"+###o#o#@ #o#o@ ",
"+####o#o@ OOo#@ ",
"+###o#o#@ #o#o@ ",
"+##o#o#o@ @@@@@ ",
"+#o#o#o#@       ",
"+o#o#o#o@ $$$$$$",
"+@@@@@@@@ $$$$$$",
"          $$$$$$"
};
