/* XPM */
static char * start_xpm[] = {
"55 24 210 2",
"  	c #D4D0C8",
". 	c #FFFFFF",
"+ 	c #404040",
"@ 	c #808080",
"# 	c #D5CFC7",
"$ 	c #D5D0C7",
"% 	c #EEB28D",
"& 	c #F5A877",
"* 	c #FDAC63",
"= 	c #F88A5A",
"- 	c #D4A697",
"; 	c #D1CDC5",
"> 	c #EBB996",
", 	c #FC9F44",
"' 	c #FE9139",
") 	c #FDA04B",
"! 	c #FFA857",
"~ 	c #FA6A15",
"{ 	c #D04009",
"] 	c #BFB1A7",
"^ 	c #B3BFA0",
"/ 	c #C0CAAB",
"( 	c #C9CCB9",
"_ 	c #C9D1B5",
": 	c #BED49F",
"< 	c #CECBC3",
"[ 	c #D5CFC6",
"} 	c #F2B07F",
"| 	c #FF861F",
"1 	c #FF8724",
"2 	c #FFAB56",
"3 	c #FF943F",
"4 	c #F0580B",
"5 	c #B03D17",
"6 	c #54623C",
"7 	c #73A632",
"8 	c #95C55C",
"9 	c #A8D277",
"0 	c #ADE36F",
"a 	c #93CB4A",
"b 	c #C2BFB7",
"c 	c #D9CDC0",
"d 	c #F8A862",
"e 	c #FD963E",
"f 	c #FF8E28",
"g 	c #FFB560",
"h 	c #FF8228",
"i 	c #E24B06",
"j 	c #98482B",
"k 	c #446A35",
"l 	c #7DA920",
"m 	c #81C209",
"n 	c #96E50C",
"o 	c #A4FB0A",
"p 	c #7FBC16",
"q 	c #C1BEB6",
"r 	c #DAC8B8",
"s 	c #F9893E",
"t 	c #F3893B",
"u 	c #E48424",
"v 	c #E79241",
"w 	c #F35708",
"x 	c #D03504",
"y 	c #4C762A",
"z 	c #85B71E",
"A 	c #85CC0A",
"B 	c #96E50A",
"C 	c #9DF306",
"D 	c #89A45D",
"E 	c #B7B3AC",
"F 	c #000000",
"G 	c #C1BA9B",
"H 	c #A88970",
"I 	c #A07561",
"J 	c #636A77",
"K 	c #5A5B65",
"L 	c #733923",
"M 	c #892209",
"N 	c #396317",
"O 	c #6B9321",
"P 	c #8AC11A",
"Q 	c #8AD30A",
"R 	c #9DEE0A",
"S 	c #97EC03",
"T 	c #8C9478",
"U 	c #B5B2AC",
"V 	c #B4B6C6",
"W 	c #527FE4",
"X 	c #4B7CF2",
"Y 	c #86A8F8",
"Z 	c #7094F3",
"` 	c #3457DA",
" .	c #38526A",
"..	c #345928",
"+.	c #7FAA28",
"@.	c #83C80D",
"#.	c #8EE007",
"$.	c #9AF706",
"%.	c #87D010",
"&.	c #99978E",
"*.	c #BBB8B1",
"=.	c #D1CECB",
"-.	c #929CED",
";.	c #4F78FF",
">.	c #7091FF",
",.	c #AAC0FF",
"'.	c #7995FF",
").	c #384CF3",
"!.	c #4054A0",
"~.	c #75893E",
"{.	c #889A55",
"].	c #87A448",
"^.	c #94A945",
"/.	c #959956",
"(.	c #86867D",
"_.	c #C2BFB8",
":.	c #CECBCC",
"<.	c #7588F6",
"[.	c #557CFF",
"}.	c #829FFF",
"|.	c #A6BCFF",
"1.	c #617EFD",
"2.	c #3744E3",
"3.	c #495C51",
"4.	c #B69000",
"5.	c #DEB535",
"6.	c #D8BC51",
"7.	c #DDC54E",
"8.	c #FED822",
"9.	c #C0A96A",
"0.	c #B7B3AD",
"a.	c #CAC6BF",
"b.	c #C3C2D3",
"c.	c #7E8BF2",
"d.	c #5C83FF",
"e.	c #9FB9FF",
"f.	c #99B4FF",
"g.	c #4C66FC",
"h.	c #474FBC",
"i.	c #5E6A2E",
"j.	c #BC9706",
"k.	c #E0B509",
"l.	c #FFCF07",
"m.	c #FFDC06",
"n.	c #FBD519",
"o.	c #A7A08A",
"p.	c #C0BDB6",
"q.	c #CECAC2",
"r.	c #B1B3DC",
"s.	c #7483F0",
"t.	c #627DF2",
"u.	c #8797ED",
"v.	c #7088F9",
"w.	c #3F53FA",
"x.	c #384A89",
"y.	c #928315",
"z.	c #C9A20A",
"A.	c #EABC0A",
"B.	c #FED10A",
"C.	c #FFD909",
"D.	c #F6CF16",
"E.	c #A6A399",
"F.	c #C1BDB6",
"G.	c #CFCCC4",
"H.	c #969B91",
"I.	c #767B72",
"J.	c #7B8377",
"K.	c #586856",
"L.	c #4A5B75",
"M.	c #3046BE",
"N.	c #455A5C",
"O.	c #AD8E04",
"P.	c #D8AF08",
"Q.	c #F6C60A",
"R.	c #FFDD08",
"S.	c #E4BF1D",
"T.	c #ABA9A3",
"U.	c #C5C1BA",
"V.	c #D2CEC6",
"W.	c #CCC9C1",
"X.	c #BFBEB5",
"Y.	c #B4B6AC",
"Z.	c #AEB0A7",
"`.	c #A7A79E",
" +	c #9EA094",
".+	c #697E5C",
"++	c #96984D",
"@+	c #CFAB28",
"#+	c #F8C909",
"$+	c #F1CD18",
"%+	c #F0CC13",
"&+	c #A8984D",
"*+	c #B3B0AA",
"=+	c #C9C5BE",
"-+	c #D3CFC7",
";+	c #C4C2BA",
">+	c #BCBCB1",
",+	c #B7B6AD",
"'+	c #A39F93",
")+	c #A29B89",
"!+	c #989281",
"~+	c #9B9891",
"{+	c #ADAAA4",
"]+	c #C3C0B8",
"^+	c #CDC9C1",
"/+	c #C2BEB7",
"(+	c #BFBCB5",
"_+	c #B9B6AF",
":+	c #BCB8B1",
"<+	c #C7C3BC",
"                                                                                                              ",
". . . . . . . . . . . . . . . . . . . . . . . . . . . . . . . . . . . . . . . . . . . . . . . . . . . . . . + ",
".                                                                                                         @ + ",
".                                                                                                         @ + ",
".           # $ % & * = - ;                                                                               @ + ",
".         # > , ' ) ! ~ { ] ^ / ( _ : <                                                                   @ + ",
".         [ } | 1 2 3 4 5 6 7 8 9 0 a b                                                                   @ + ",
".         c d e f g h i j k l m n o p q                                                                   @ + ",
".         r s t u v w x j y z A B C D E       F F F F F   F F                               F F           @ + ",
".         G H I J K L M N O P Q R S T U     F F           F F                               F F           @ + ",
".         V W X Y Z `  ...+.@.#.$.%.&.*.    F F           F F F F     F F F F     F F   F   F F F F       @ + ",
".       =.-.;.>.,.'.).!.~.~.{.].^./.(._.    F F F F F     F F               F F   F F F F   F F           @ + ",
".       :.<.[.}.|.1.2.3.4.5.6.7.8.9.0.a.      F F F F F   F F         F F F F F   F F       F F           @ + ",
".       b.c.d.e.f.g.h.i.j.k.l.m.n.o.p.q.            F F   F F       F F     F F   F F       F F           @ + ",
".       r.s.t.u.v.w.x.y.z.A.B.C.D.E.F.G.            F F   F F       F F     F F   F F       F F           @ + ",
".       H.I.J.K.L.M.N.O.P.Q.C.R.S.T.U.V.    F F F F F       F F F     F F F F F   F F         F F F       @ + ",
".       W.X.Y.Z.`. +.+++@+#+$+%+&+*+=+-+                                                                  @ + ",
".                 ;+>+,+'+)+!+~+{+]+q.                                                                    @ + ",
".                 V.V.^+/+(+_+:+<+; V.                                                                    @ + ",
".                                                                                                         @ + ",
".                                                                                                         @ + ",
". @ @ @ @ @ @ @ @ @ @ @ @ @ @ @ @ @ @ @ @ @ @ @ @ @ @ @ @ @ @ @ @ @ @ @ @ @ @ @ @ @ @ @ @ @ @ @ @ @ @ @ @ @ + ",
"+ + + + + + + + + + + + + + + + + + + + + + + + + + + + + + + + + + + + + + + + + + + + + + + + + + + + + + + ",
"                                                                                                              "};
