/* XPM */
static char *start[] = {
/* columns rows colors chars-per-pixel */
"55 24 214 2 ",
"   c black",
".  c #733923",
"X  c #396317",
"o  c #345928",
"O  c #5D692D",
"+  c #4C762A",
"@  c #446A35",
"#  c #54623C",
"$  c #38526A",
"%  c gray25",
"&  c #43594D",
"*  c #43595B",
"=  c #567744",
"-  c #566653",
";  c #5A5B65",
":  c #4A5B75",
">  c #667065",
",  c #6E7A6D",
"<  c #636A77",
"1  c #892209",
"2  c #B03D17",
"3  c #D03504",
"4  c #98482B",
"5  c #D04009",
"6  c #E24B06",
"7  c #F35708",
"8  c #F0580B",
"9  c #FA6A15",
"0  c #9F735D",
"q  c #7FBC0D",
"w  c #6B9321",
"e  c #75893E",
"r  c #7DA920",
"t  c #7FAA28",
"y  c #73A632",
"u  c #7F8C61",
"i  c #7A8D7F",
"p  c #92830B",
"a  c #AD8E04",
"s  c #B69000",
"d  c #BC9706",
"f  c #85B71E",
"g  c #949633",
"h  c #F98711",
"j  c #F38718",
"k  c #FF861F",
"l  c #FF871F",
"z  c #C9A20A",
"x  c #D8AF08",
"c  c #CFAB1A",
"v  c #DEB41B",
"b  c #E0B509",
"n  c #EABC0A",
"m  c #E4BF1D",
"M  c #E48424",
"N  c #FE8E22",
"B  c #FF8228",
"V  c #FC952B",
"C  c #F8853B",
"Z  c #FE9130",
"A  c #FF943F",
"S  c #D8BC31",
"D  c #81C209",
"F  c #85CC0A",
"G  c #83C80D",
"H  c #8AD30A",
"J  c #8AC11A",
"K  c #87D010",
"L  c #8EE007",
"P  c #97EC03",
"I  c #96E50A",
"U  c #96E50C",
"Y  c #9DEE0A",
"T  c #9DF306",
"R  c #9AF706",
"E  c #A4FB0A",
"W  c #90CB24",
"Q  c #90C532",
"!  c #FFCF07",
"~  c #F6C60A",
"^  c #F8C909",
"/  c #FFDC06",
"(  c #FED10A",
")  c #FFD909",
"_  c #FFDD08",
"`  c #F1CD10",
"'  c #F0CC13",
"]  c #F6CF16",
"[  c #FBD511",
"{  c #FED813",
"}  c #DDC430",
"|  c #889A55",
" . c #959956",
".. c #A8984D",
"X. c #83A344",
"o. c #87A448",
"O. c #94A945",
"+. c #8B8466",
"@. c #988F6C",
"#. c #838477",
"$. c #85837B",
"%. c #86867D",
"&. c #938F7C",
"*. c #A78467",
"=. c #A09672",
"-. c #E79241",
";. c #FC9F44",
":. c #FD9F44",
">. c #C0A74E",
",. c #F7A642",
"<. c #FFA857",
"1. c #FFAB56",
"2. c #F4A65F",
"3. c #D49978",
"4. c #F0AE62",
"5. c #FDAC60",
"6. c #FFB560",
"7. c #EDAF75",
"8. c #E9B77E",
"9. c #A4D24B",
"0. c #ABE343",
"q. c #304589",
"w. c #3046BE",
"e. c #3845BC",
"r. c #4054A0",
"t. c #3457DA",
"y. c #3342E3",
"u. c #384CF3",
"i. c #3F53FA",
"p. c #497DE4",
"a. c #5E79EF",
"s. c #4C66FC",
"d. c #4B7CF2",
"f. c #4F78FF",
"g. c #557CFF",
"h. c #617DF2",
"j. c #617EFD",
"k. c #5C83FF",
"l. c #7F93EB",
"z. c #6680F1",
"x. c #6481F5",
"c. c #7088F9",
"v. c #7094F3",
"b. c #7091FF",
"n. c #7995FF",
"m. c #808080",
"M. c #8E9484",
"N. c #989488",
"B. c #969B8F",
"V. c #979592",
"C. c #979593",
"Z. c #9F9D99",
"A. c #BFB88C",
"S. c #A4A09C",
"D. c #A6A39D",
"F. c #A6AB9F",
"G. c #BDAA9F",
"H. c #ACBE90",
"J. c #A6A3A0",
"K. c #A7A5A1",
"L. c #A7AAA1",
"P. c #ACA9A4",
"I. c #B1AEAA",
"U. c #B2AFAB",
"Y. c #AAB4A2",
"T. c #ACB2A5",
"R. c #B6B3AB",
"E. c #B4B1AC",
"W. c #B5B2AD",
"Q. c #B7B5AC",
"!. c #B7B4AD",
"~. c #B8B5AF",
"^. c #B6B8AD",
"/. c #BAB7B1",
"(. c #BEBAB4",
"). c #BEBEB4",
"_. c #C1BEB7",
"`. c #C3BFB8",
"'. c #BAD481",
"]. c #BBCA94",
"[. c #C6CBAD",
"{. c #DAC7AD",
"}. c #C7D1A6",
"|. c #C8C4BD",
" X c #C9C5BE",
".X c #C9C7BE",
"XX c #CAC6BF",
"oX c #CBC7BF",
"OX c #D8CCBC",
"+X c #A4AEC6",
"@X c #A1AADA",
"#X c #BCBED2",
"$X c #8697ED",
"%X c #829FFF",
"&X c #86A8F8",
"*X c #99B4FF",
"=X c #9FB9FF",
"-X c #A6BCFF",
";X c #AAC0FF",
":X c #CCC8C1",
">X c #CFCAC2",
",X c #CFCBC3",
"<X c #CBC9CC",
"1X c #D0CCC4",
"2X c #D0CCC5",
"3X c #D1CDC5",
"4X c #D3CFC7",
"5X c #D5CFC5",
"6X c #D4CFC6",
"7X c #D5CFC6",
"8X c #D0CDCB",
"9X c #D5D0C6",
"0X c #D4D0C8",
"qX c white",
/* pixels */
"0X0X0X0X0X0X0X0X0X0X0X0X0X0X0X0X0X0X0X0X0X0X0X0X0X0X0X0X0X0X0X0X0X0X0X0X0X0X0X0X0X0X0X0X0X0X0X0X0X0X0X0X0X0X0X",
"qXqXqXqXqXqXqXqXqXqXqXqXqXqXqXqXqXqXqXqXqXqXqXqXqXqXqXqXqXqXqXqXqXqXqXqXqXqXqXqXqXqXqXqXqXqXqXqXqXqXqXqXqXqX% ",
"qX0X0X0X0X0X0X0X0X0X8X8X0X0X0X0X0X0X0X0X0X0X0X0X0X0X0X0X0X0X0X0X0X0X0X0X0X0X0X0X0X0X0X0X0X0X0X0X0X0X0X0X0Xm.% ",
"qX0X0X0X0X0X0X0X0X0X0X8X0X0X0X0X0X0X0X0X0X0X0X0X0X0X0X0X0X0X0X0X0X0X0X0X0X0X0X0X0X0X0X0X0X0X0X0X0X0X0X0X0Xm.% ",
"qX0X0X0X0X0X6X9X7.5.5.9 3.>X0X0X0X0X0X0X0X0X0X0X0X0X0X0X0X0X0X0X0X0X0X0X0X0X0X0X0X0X0X0X0X0X0X0X0X0X0X0X0Xm.% ",
"qX0X0X0X0X6X8.;.Z ,.<.9 5 G.H.].[.}.'.oX0X0X0X0X0X0X0X0X0X0X0X0X0X0X0X0X0X0X0X0X0X0X0X0X0X0X0X0X0X0X0X0X0Xm.% ",
"qX0X0X0X0X6X4.k k 1.A 8 2 # y Q 9.0.W Q.0X0X0X0X0X0X0X0X0X0X0X0X0X0X0X0X0X0X0X0X0X0X0X0X0X0X0X0X0X0X0X0X0Xm.% ",
"qX0X0X0X0XOX,.V N 6.B 6 4 @ r D U E q R.0X0X0X0X0X0X0X0X0X0X0X0X0X0X0X0X0X0X0X0X0X0X0X0X0X0X0X0X0X0X0X0X0Xm.% ",
"qX0X0X0X0X{.h j M -.7 3 4 + f F I T X.D.0X0X0X          0X    0X0X0X0X0X0X0X0X0X0X0X0X0X0X0X    0X0X0X0X0Xm.% ",
"qX0X0X0X0XA.*.0 < ; . 1 X w J H Y P u S.0X0X    0X0X0X0X0X    0X0X0X0X0X0X0X0X0X0X0X0X0X0X0X    0X0X0X0X0Xm.% ",
"qX0X0X0X0X+Xp.d.&Xv.t.$ o t G L R K #.P.0X0X    0X0X0X0X0X        0X0X        0X0X    0X  0X        0X0X0Xm.% ",
"qX0X0X0X8Xl.f.b.;Xn.u.r.e e | o.O. .%.Q.0X0X          0X0X    0X0X0X0X0X0X0X    0X        0X    0X0X0X0X0Xm.% ",
"qX0X0X0X<Xx.g.%X-Xj.y.& s v S } { >.J.`.0X0X0X          0X    0X0X0X0X          0X    0X0X0X    0X0X0X0X0Xm.% ",
"qX0X0X0X#Xz.k.=X*Xs.e.O d b ! / [ =.I.oX0X0X0X0X0X0X    0X    0X0X0X    0X0X    0X    0X0X0X    0X0X0X0X0Xm.% ",
"qX0X0X0X@Xa.h.$Xc.i.q.p z n ( ) ] N.E.:X0X0X0X0X0X0X    0X    0X0X0X    0X0X    0X    0X0X0X    0X0X0X0X0Xm.% ",
"qX0X0X0Xi > , - : w.* a x ~ ) _ m C./.1X0X0X          0X0X0X      0X0X          0X    0X0X0X0X      0X0X0Xm.% ",
"qX0X0X0X.X^.T.L.B.M.= g c ^ ` ' ..Z._.4X0X0X0X0X0X0X0X0X0X0X0X0X0X0X0X0X0X0X0X0X0X0X0X0X0X0X0X0X0X0X0X0X0Xm.% ",
"qX0X0X0X0X0X0X0X4X).Y.F.&.@.+.$.V.~.oX8X0X0X0X0X0X0X0X0X0X0X0X0X0X0X0X0X0X0X0X0X0X0X0X0X0X0X0X0X0X0X0X0X0Xm.% ",
"qX0X0X0X0X0X0X0X8X3X4X|.W.I.K.P.(.>X1X6X0X0X0X0X0X0X0X0X0X0X0X0X0X0X0X0X0X0X0X0X0X0X0X0X0X0X0X0X0X0X0X0X0Xm.% ",
"qX0X0X0X0X0X0X0X9X9X0X0X0X0X0X0X0X0X0X6X0X0X0X0X0X0X0X0X0X0X0X0X0X0X0X0X0X0X0X0X0X0X0X0X0X0X0X0X0X0X0X0X0Xm.% ",
"qX0X0X0X0X0X0X0X0X0X0X0X0X0X0X0X0X0X0X0X0X0X0X0X0X0X0X0X0X0X0X0X0X0X0X0X0X0X0X0X0X0X0X0X0X0X0X0X0X0X0X0X0Xm.% ",
"qXm.m.m.m.m.m.m.m.m.m.m.m.m.m.m.m.m.m.m.m.m.m.m.m.m.m.m.m.m.m.m.m.m.m.m.m.m.m.m.m.m.m.m.m.m.m.m.m.m.m.m.m.m.% ",
"% % % % % % % % % % % % % % % % % % % % % % % % % % % % % % % % % % % % % % % % % % % % % % % % % % % % % % % ",
"0X0X0X0X0X0X0X0X0X0X0X0X0X0X0X0X0X0X0X0X0X0X0X0X0X0X0X0X0X0X0X0X0X0X0X0X0X0X0X0X0X0X0X0X0X0X0X0X0X0X0X0X0X0X0X"
};
