/* XPM */
static char * titleIB_xpm[] = {
"3 19 4 1",
" 	c #808080",
".	c #A0A0A0",
"+	c #c0c0c0",
"@	c #d4d0c8",
" .+",
" .+",
" .+",
" .+",
" .+",
" .+",
" .+",
" .+",
" .+",
" .+",
" .+",
" .+",
" .+",
" .+",
" .+",
" .+",
" .+",
" .+",
"@@@"};
