/* XPM */
static char *xfp[] = {
/* columns rows colors chars-per-pixel */
"16 16 16 1 ",
"  c black",
". c green",
"X c yellow",
"o c #3366CC",
"O c #3366FF",
"+ c #6666CC",
"@ c #0099CC",
"# c #3399CC",
"$ c cyan",
"% c #66CCFF",
"& c #66FFFF",
"* c #868686",
"= c #C0C0C0",
"- c #D7D7D7",
"; c white",
": c None",
/* pixels */
"::::::*-------* ",
"::::::*+ooooo;* ",
"::::::*+%&&%#;* ",
"::::***+&&%#@;* ",
":::*;;*+&%#@O;* ",
":****=*+%#@Oo;* ",
"*;;*==*=======* ",
":** ==********= ",
":*; ==     ***= ",
":*; =*$$X;; === ",
":*; *$=$X;==   :",
":*= *==$  == :::",
":*= *=== .$$ :::",
":*= *==;=.== :::",
":*=  *;;=X. ::::",
":   ::     :::::"
};
