/* XPM */
static char *xfw[] = {
/* columns rows colors chars-per-pixel */
"16 16 22 1 ",
"  c black",
". c gray3",
"X c #008080",
"o c #33CCCC",
"O c cyan",
"+ c #66CCCC",
"@ c #66CCFF",
"# c #66FFFF",
"$ c #868686",
"% c #B2B2B2",
"& c #99CCCC",
"* c #99CCFF",
"= c #A6CAF0",
"- c #99FFFF",
"; c #C0C0C0",
": c #D7D7D7",
"> c #CCECFF",
", c #CCFFFF",
"< c gray89",
"1 c #F1F1F1",
"2 c #F8F8F8",
"3 c None",
/* pixels */
"33333XXXXXXXXX33",
"3333X+%<;<;<%;X3",
"3333X,22222,=+X ",
"333X+2222,->*+  ",
"333X2+    >=+X; ",
"33X+,+++++=++ ; ",
"33X#1>>>>&=@X;; ",
"3Xo->>->-=&+ <; ",
"3XO>>--=-+@X;+; ",
"X+---+-&++o :2; ",
"XO&&&-@&+@X;++; ",
"Xo+oo++oo+ ;22; ",
"3   .   . ;+++; ",
"33333$<<<<<222; ",
"33333$;;;;;;;;; ",
"333333         3"
};
